<?xml version="1.0" encoding="utf-8"?>
<!-- Generator: Adobe Illustrator 23.0.1, SVG Export Plug-In . SVG Version: 6.00 Build 0)  -->
<svg version="1.1" id="Слой_1" xmlns="http://www.w3.org/2000/svg" xmlns:xlink="http://www.w3.org/1999/xlink" x="0px" y="0px"
	 viewBox="0 0 200 200" style="enable-background:new 0 0 200 200;" xml:space="preserve">
<style type="text/css">
	.st0{clip-path:url(#SVGID_2_);fill:#5B595A;}
	.st1{clip-path:url(#SVGID_2_);}
	.st2{fill:#5E616B;}
	.st3{fill:#FBC800;}
	.st4{fill:#6D7080;}
	.st5{fill:#262524;}
	.st6{fill:#2E2C29;}
</style>
<g>
	<defs>
		<circle id="SVGID_1_" cx="100" cy="100" r="99"/>
	</defs>
	<clipPath id="SVGID_2_">
		<use xlink:href="#SVGID_1_"  style="overflow:visible;"/>
	</clipPath>
	<circle class="st0" cx="100" cy="99.91" r="99"/>
	<g class="st1">
		<circle class="st2" cx="102.26" cy="167.7" r="73.26"/>
		<path class="st3" d="M226.04,162.31l-2.88-0.3c0-0.31,0.02-0.61,0.02-0.92c0-0.31-0.02-0.61-0.02-0.92l2.88-0.3
			c1.84-0.19,3.17-1.84,2.98-3.68l-1.8-17.14c-0.19-1.84-1.84-3.17-3.68-2.98l-2.85,0.31c-0.12-0.6-0.28-1.19-0.41-1.79l2.74-0.9
			c1.77-0.57,2.72-2.46,2.15-4.22l-5.32-16.38c-0.57-1.76-2.46-2.72-4.22-2.15l-2.76,0.89c-0.24-0.56-0.5-1.11-0.76-1.67l2.53-1.46
			c1.6-0.92,2.15-2.97,1.22-4.57l-8.61-14.92c-0.93-1.6-2.97-2.15-4.57-1.22l-2.56,1.47c-0.36-0.49-0.69-0.99-1.05-1.49l2.18-1.96
			c1.38-1.24,1.49-3.35,0.25-4.72l-11.53-12.81c-1.24-1.37-3.35-1.48-4.73-0.25l-2.19,1.97c-0.45-0.41-0.91-0.8-1.36-1.21l1.74-2.39
			c1.08-1.49,0.75-3.59-0.74-4.68L168.76,51.8c-1.5-1.09-3.59-0.75-4.68,0.74l-1.72,2.37c-0.52-0.31-1.05-0.61-1.59-0.91l1.19-2.68
			c0.75-1.69-0.01-3.67-1.7-4.42l-15.74-7.01c-1.68-0.75-3.67,0-4.42,1.7l-1.18,2.65c-0.58-0.19-1.15-0.4-1.74-0.59l0.6-2.82
			c0.38-1.81-0.77-3.58-2.58-3.97l-16.86-3.58c-1.81-0.39-3.58,0.77-3.97,2.58l-0.6,2.84c-0.61-0.07-1.22-0.14-1.84-0.2v-2.88
			c0-1.85-1.5-3.35-3.34-3.35H91.38c-1.85,0-3.34,1.5-3.34,3.35v2.89c-0.61,0.06-1.22,0.13-1.83,0.2l-0.6-2.83
			c-0.38-1.81-2.16-2.96-3.97-2.58l-16.86,3.58c-1.81,0.38-2.96,2.16-2.57,3.97l0.6,2.82c-0.59,0.18-1.16,0.39-1.74,0.59l-1.18-2.65
			c-0.75-1.69-2.73-2.45-4.42-1.7L39.73,46.9c-1.69,0.75-2.45,2.73-1.7,4.42L39.23,54c-0.53,0.3-1.06,0.6-1.58,0.91l-1.72-2.37
			c-1.09-1.5-3.18-1.83-4.67-0.74L17.31,61.93c-1.5,1.09-1.83,3.18-0.74,4.68L18.3,69c-0.45,0.41-0.92,0.8-1.37,1.21l-2.19-1.97
			c-1.37-1.24-3.49-1.12-4.73,0.25L-1.5,81.29c-1.23,1.37-1.13,3.49,0.25,4.72l2.18,1.96c-0.36,0.5-0.7,1-1.06,1.49l-2.56-1.47
			c-1.6-0.92-3.65-0.37-4.57,1.22l-8.61,14.92c-0.93,1.6-0.38,3.64,1.22,4.57l2.53,1.46c-0.26,0.56-0.51,1.11-0.76,1.67l-2.76-0.89
			c-1.76-0.57-3.64,0.39-4.22,2.15l-5.33,16.38c-0.57,1.76,0.39,3.65,2.15,4.22l2.75,0.89c-0.13,0.6-0.29,1.19-0.41,1.8l-2.84-0.31
			c-1.84-0.19-3.49,1.15-3.68,2.98l-1.8,17.13c-0.19,1.84,1.14,3.49,2.98,3.68l2.88,0.3c0,0.31-0.02,0.61-0.02,0.92
			c0,0.31,0.02,0.61,0.02,0.92l-2.88,0.3c-1.84,0.19-3.17,1.84-2.98,3.68l1.8,17.13c0.19,1.83,1.84,3.17,3.68,2.97l2.84-0.29
			c0.13,0.6,0.28,1.19,0.41,1.8l-2.75,0.89c-1.76,0.57-2.72,2.46-2.15,4.22l5.32,16.39c0.57,1.76,2.46,2.72,4.22,2.15l2.76-0.89
			c0.25,0.56,0.5,1.11,0.76,1.66l-2.52,1.46c-1.6,0.93-2.15,2.97-1.23,4.57l8.62,14.92c0.93,1.6,2.97,2.15,4.57,1.22l2.56-1.48
			c0.35,0.5,0.69,1.01,1.06,1.49l-2.18,1.96c-1.38,1.23-1.48,3.35-0.25,4.73l11.53,12.8c1.23,1.38,3.35,1.49,4.73,0.25l2.18-1.97
			c0.45,0.41,0.91,0.81,1.37,1.21l-1.74,2.39c-1.09,1.49-0.75,3.58,0.74,4.67l13.94,10.12c1.49,1.09,3.59,0.76,4.67-0.74l1.72-2.37
			c0.52,0.31,1.05,0.61,1.58,0.91l-1.19,2.68c-0.75,1.68,0.01,3.66,1.7,4.41l15.74,7.01c1.69,0.75,3.67-0.01,4.42-1.7l1.18-2.65
			c0.58,0.2,1.16,0.41,1.74,0.59l-0.6,2.81c-0.38,1.81,0.77,3.59,2.58,3.97l16.85,3.58c1.81,0.39,3.58-0.77,3.97-2.58l0.6-2.83
			c0.61,0.07,1.21,0.14,1.82,0.2v2.88c0,1.84,1.5,3.35,3.34,3.35h17.23c1.85,0,3.34-1.5,3.34-3.35v-2.88
			c0.61-0.06,1.22-0.14,1.82-0.2l0.61,2.83c0.38,1.81,2.16,2.96,3.97,2.58l16.85-3.58c1.81-0.38,2.96-2.16,2.58-3.97l-0.6-2.82
			c0.58-0.18,1.16-0.39,1.74-0.59l1.18,2.65c0.75,1.69,2.73,2.45,4.42,1.7l15.74-7.01c1.69-0.75,2.45-2.73,1.7-4.42l-1.19-2.68
			c0.53-0.3,1.06-0.6,1.58-0.91l1.72,2.37c1.09,1.49,3.18,1.83,4.68,0.74l13.93-10.12c1.5-1.09,1.83-3.18,0.74-4.67l-1.74-2.39
			c0.46-0.41,0.92-0.8,1.37-1.21l2.19,1.97c1.38,1.24,3.49,1.13,4.73-0.25l11.53-12.81c1.24-1.37,1.12-3.49-0.25-4.73l-2.18-1.96
			c0.36-0.49,0.7-1,1.05-1.49l2.56,1.47c1.6,0.93,3.65,0.38,4.57-1.23l8.62-14.92c0.92-1.61,0.37-3.64-1.23-4.57l-2.52-1.46
			c0.26-0.56,0.51-1.11,0.76-1.67l2.76,0.89c1.75,0.57,3.64-0.39,4.21-2.15l5.33-16.39c0.57-1.76-0.39-3.64-2.15-4.22l-2.74-0.89
			c0.13-0.6,0.29-1.19,0.41-1.79l2.84,0.3c1.84,0.2,3.48-1.14,3.68-2.98l1.8-17.13C229.21,164.15,227.88,162.5,226.04,162.31z
			 M102.96,233.59c-40.46,0-73.26-32.8-73.26-73.26c0-40.46,32.8-73.26,73.26-73.26c40.46,0,73.26,32.8,73.26,73.26
			C176.21,200.79,143.42,233.59,102.96,233.59z"/>
		<g>
			<path class="st2" d="M100,99.2c-34.17,0-61.88,27.71-61.88,61.89c0,34.18,27.71,61.89,61.88,61.89
				c34.18,0,61.89-27.71,61.89-61.89C161.89,126.91,134.18,99.2,100,99.2z M108.63,112.97c0.13-1.86,1.88-3.18,3.7-2.75
				c13.24,3.21,24.98,11.75,32.19,23.41c0.48,0.76,0.6,1.68,0.34,2.5c-0.28,0.85-0.93,1.53-1.79,1.88l-33.73,13.81
				c-0.39,0.16-0.77,0.24-1.14,0.24c-0.64,0-1.23-0.25-1.65-0.69c-0.46-0.5-0.69-1.22-0.63-2.03L108.63,112.97z M55.45,133.65
				c7.22-11.67,18.96-20.21,32.21-23.42c1.86-0.45,3.57,0.88,3.7,2.75l2.69,36.36c0.07,0.79-0.14,1.52-0.6,2.02
				c-0.42,0.45-1,0.7-1.65,0.7c-0.37,0-0.75-0.08-1.13-0.24l-33.76-13.81c-0.85-0.35-1.49-1.03-1.77-1.87
				C54.87,135.31,54.98,134.43,55.45,133.65z M62.41,196.04c-0.88,0-1.69-0.39-2.28-1.08c-8.04-9.45-12.48-21.47-12.48-33.86
				c0-1.36,0.05-2.67,0.17-3.99c0.13-1.85,1.88-3.12,3.73-2.68L87,163.1c0.96,0.24,1.64,0.83,1.89,1.61
				c0.25,0.78,0.03,1.65-0.59,2.38l-23.55,27.83C64.15,195.63,63.29,196.04,62.41,196.04z M121.64,207.63
				c-0.27,0.83-0.89,1.51-1.73,1.85c-6.35,2.62-13.05,3.95-19.92,3.95c-6.86,0-13.55-1.32-19.9-3.95c-0.83-0.34-1.45-1-1.73-1.83
				c-0.27-0.84-0.15-1.78,0.34-2.56l19.21-31.01c1.01-1.66,3.17-1.67,4.2,0.01l19.18,31C121.78,205.86,121.91,206.79,121.64,207.63z
				 M139.85,194.96c-0.57,0.68-1.39,1.08-2.27,1.08c-0.89,0-1.74-0.41-2.34-1.13l-23.55-27.82c-0.62-0.74-0.84-1.61-0.59-2.38
				c0.26-0.78,0.94-1.37,1.89-1.61l35.42-8.68c1.9-0.45,3.62,0.82,3.76,2.69c0.11,1.32,0.17,2.62,0.17,3.98
				C152.35,173.47,147.91,185.5,139.85,194.96z"/>
			<path class="st4" d="M99.99,154.21c1.77,0,3.2-1.42,3.2-3.18c0-1.77-1.44-3.21-3.2-3.21c-1.77,0-3.2,1.44-3.2,3.21
				C96.79,152.79,98.22,154.21,99.99,154.21z"/>
			<path class="st4" d="M108.24,154.69c-1.68,0.53-2.6,2.34-2.06,4.01c0.55,1.68,2.36,2.6,4.03,2.06c1.68-0.55,2.6-2.36,2.07-4.03
				C111.72,155.06,109.92,154.13,108.24,154.69z"/>
			<path class="st4" d="M103.12,170.45c1.03,1.44,3.04,1.75,4.46,0.7c1.43-1.03,1.74-3.02,0.71-4.46c-1.03-1.44-3.04-1.75-4.47-0.7
				C102.41,167.03,102.09,169.02,103.12,170.45z"/>
			<path class="st4" d="M93.81,158.72c0.55-1.68-0.37-3.48-2.05-4.03c-1.67-0.53-3.47,0.37-4.03,2.06
				c-0.55,1.67,0.37,3.48,2.05,4.01C91.46,161.32,93.27,160.4,93.81,158.72z"/>
			<g>
				<path class="st4" d="M108.2,152.06c0.37,0,0.75-0.08,1.14-0.24l33.73-13.81c0.87-0.35,1.52-1.03,1.79-1.88
					c0.26-0.82,0.14-1.73-0.34-2.5c-7.21-11.67-18.95-20.2-32.19-23.41c-1.81-0.43-3.56,0.88-3.7,2.75l-2.71,36.37
					c-0.06,0.8,0.17,1.53,0.63,2.03C106.97,151.82,107.56,152.06,108.2,152.06z M110.46,116.61c12.06,2.85,22.27,10.5,28.51,20.82
					l-30.42,12.45c-0.17,0.07-0.28,0.08-0.35,0.08l-0.11-0.02c-0.04-0.04-0.1-0.18-0.08-0.45L110.46,116.61z"/>
				<path class="st4" d="M56.91,138.02l33.76,13.81c0.39,0.16,0.76,0.24,1.13,0.24c0.65,0,1.23-0.25,1.65-0.7
					c0.46-0.51,0.68-1.23,0.6-2.02l-2.69-36.36c-0.13-1.87-1.84-3.19-3.7-2.75c-13.24,3.21-24.98,11.75-32.21,23.42
					c-0.47,0.78-0.59,1.67-0.32,2.5C55.41,136.98,56.05,137.66,56.91,138.02z M89.54,116.61l2.43,32.9c0.02,0.26-0.04,0.4-0.07,0.44
					c-0.04,0.04-0.19,0.05-0.45-0.06l-30.43-12.45C67.27,127.11,77.48,119.46,89.54,116.61z"/>
				<path class="st4" d="M88.9,164.71c-0.25-0.78-0.94-1.37-1.89-1.61l-35.44-8.67c-1.85-0.44-3.6,0.82-3.73,2.68
					c-0.12,1.32-0.17,2.63-0.17,3.99c0,12.39,4.43,24.42,12.48,33.86c0.59,0.7,1.4,1.08,2.28,1.08c0.88,0,1.73-0.41,2.34-1.12
					l23.55-27.83C88.93,166.36,89.14,165.49,88.9,164.71z M86.71,165.74L65.6,190.68c-6.92-7.99-11.14-18.38-11.14-29.76
					c0-1.21,0.06-2.4,0.16-3.59l31.88,7.81c0.3,0.07,0.4,0.19,0.41,0.22C86.91,165.39,86.88,165.54,86.71,165.74z"/>
				<path class="st4" d="M152.18,157.12c-0.14-1.87-1.86-3.14-3.76-2.69l-35.42,8.68c-0.95,0.24-1.63,0.83-1.89,1.61
					c-0.25,0.78-0.03,1.65,0.59,2.38l23.55,27.82c0.59,0.72,1.45,1.13,2.34,1.13c0.87,0,1.7-0.4,2.27-1.08
					c8.06-9.46,12.5-21.49,12.5-33.86C152.35,159.74,152.29,158.44,152.18,157.12z M134.4,190.68l-21.11-24.93
					c-0.17-0.21-0.21-0.36-0.19-0.39c0.01-0.03,0.1-0.14,0.39-0.22l31.89-7.81c0.09,1.19,0.15,2.38,0.15,3.59
					C145.54,172.3,141.32,182.69,134.4,190.68z"/>
				<path class="st4" d="M102.1,174.09c-1.02-1.68-3.19-1.67-4.2-0.01L78.7,205.09c-0.49,0.79-0.61,1.72-0.34,2.56
					c0.27,0.82,0.9,1.49,1.73,1.83c6.35,2.62,13.04,3.95,19.9,3.95c6.87,0,13.58-1.32,19.92-3.95c0.83-0.34,1.46-1.02,1.73-1.85
					c0.27-0.84,0.14-1.77-0.35-2.54L102.1,174.09z M100,206.46c-6.21,0-12.11-1.27-17.5-3.52l17.18-27.75
					c0.16-0.26,0.29-0.32,0.31-0.32c0.01,0,0.15,0.05,0.31,0.32l17.17,27.75C112.1,205.19,106.2,206.46,100,206.46z"/>
			</g>
			<path class="st4" d="M91.72,166.69c-1.05,1.44-0.74,3.43,0.7,4.48c1.41,1.03,3.43,0.72,4.46-0.72c1.05-1.42,0.72-3.42-0.7-4.46
				C94.74,164.97,92.76,165.28,91.72,166.69z"/>
		</g>
		<path class="st4" d="M100,99.16c34.15,0,61.93,27.78,61.93,61.93c0,34.15-27.78,61.93-61.93,61.93
			c-34.15,0-61.93-27.78-61.93-61.93C38.07,126.94,65.85,99.16,100,99.16L100,99.16z M100,94.89c-36.56,0-66.2,29.64-66.2,66.2
			c0,36.56,29.64,66.2,66.2,66.2c36.56,0,66.2-29.64,66.2-66.2C166.2,124.53,136.56,94.89,100,94.89L100,94.89z"/>
		<path class="st5" d="M100,51.77c-60.28,0-109.32,49.04-109.32,109.32c0,60.28,49.04,109.32,109.32,109.32
			c60.28,0,109.32-49.04,109.32-109.32C209.32,100.81,160.28,51.77,100,51.77z M99.99,225.8c-35.67,0-64.69-29.03-64.69-64.71
			c0-35.68,29.02-64.71,64.69-64.71c35.68,0,64.71,29.03,64.71,64.71C164.7,196.77,135.67,225.8,99.99,225.8z"/>
		<path class="st6" d="M215.8,162.22l-2.64-0.28c0-0.29,0.02-0.56,0.02-0.85c0-0.28-0.02-0.56-0.02-0.84l2.64-0.28
			c1.69-0.18,2.91-1.69,2.74-3.38l-1.65-15.74c-0.18-1.69-1.69-2.91-3.38-2.74l-2.62,0.28c-0.11-0.55-0.26-1.1-0.37-1.65l2.52-0.82
			c1.62-0.52,2.5-2.26,1.98-3.88l-4.89-15.05c-0.52-1.61-2.26-2.5-3.88-1.97l-2.54,0.82c-0.23-0.51-0.46-1.02-0.7-1.53l2.32-1.34
			c1.47-0.85,1.98-2.73,1.12-4.2l-7.91-13.71c-0.85-1.47-2.73-1.97-4.2-1.12l-2.35,1.35c-0.33-0.45-0.64-0.91-0.97-1.37l2-1.8
			c1.26-1.14,1.37-3.08,0.23-4.34l-10.59-11.77c-1.13-1.26-3.08-1.36-4.34-0.23l-2.01,1.81c-0.41-0.38-0.84-0.74-1.25-1.11l1.6-2.2
			c1-1.37,0.69-3.3-0.68-4.3l-12.81-9.3c-1.38-1-3.3-0.69-4.3,0.68l-1.58,2.18c-0.48-0.28-0.97-0.56-1.46-0.84l1.1-2.46
			c0.69-1.55-0.01-3.37-1.56-4.06l-14.46-6.44c-1.55-0.69-3.37,0-4.06,1.56l-1.09,2.44c-0.53-0.18-1.06-0.37-1.6-0.54l0.55-2.59
			c0.35-1.66-0.71-3.29-2.37-3.65l-15.49-3.29c-1.66-0.36-3.29,0.71-3.65,2.37l-0.55,2.6c-0.56-0.06-1.12-0.13-1.69-0.19v-2.65
			c0-1.7-1.38-3.08-3.07-3.08H92.08c-1.7,0-3.07,1.38-3.07,3.08v2.65c-0.56,0.05-1.12,0.12-1.68,0.18l-0.55-2.6
			c-0.35-1.66-1.99-2.72-3.64-2.37l-15.49,3.29c-1.66,0.35-2.72,1.99-2.36,3.65l0.55,2.59c-0.54,0.17-1.06,0.36-1.6,0.54l-1.09-2.43
			c-0.69-1.55-2.51-2.25-4.06-1.56l-14.46,6.44c-1.55,0.69-2.25,2.51-1.56,4.06l1.09,2.46c-0.49,0.28-0.97,0.55-1.45,0.84
			l-1.58-2.18c-1-1.38-2.92-1.68-4.29-0.68l-12.81,9.3c-1.37,1-1.68,2.92-0.68,4.3l1.6,2.2c-0.42,0.37-0.84,0.73-1.25,1.11
			l-2.01-1.81c-1.26-1.14-3.21-1.03-4.34,0.23L6.75,87.78c-1.13,1.26-1.03,3.2,0.23,4.34l2,1.8c-0.33,0.46-0.65,0.92-0.97,1.37
			l-2.35-1.35c-1.47-0.85-3.35-0.34-4.2,1.12l-7.91,13.71c-0.85,1.47-0.35,3.35,1.12,4.2l2.32,1.34c-0.24,0.51-0.47,1.02-0.7,1.53
			l-2.54-0.82c-1.62-0.52-3.35,0.36-3.87,1.97l-4.89,15.05c-0.52,1.61,0.36,3.35,1.98,3.87l2.53,0.82
			c-0.12,0.55-0.27,1.09-0.38,1.65l-2.61-0.28c-1.69-0.17-3.2,1.05-3.38,2.74l-1.66,15.74c-0.18,1.69,1.05,3.2,2.74,3.38l2.64,0.28
			c0,0.28-0.02,0.56-0.02,0.84c0,0.29,0.02,0.56,0.02,0.85l-2.64,0.28c-1.69,0.17-2.91,1.69-2.74,3.38l1.65,15.74
			c0.18,1.68,1.69,2.91,3.38,2.73l2.61-0.27c0.12,0.55,0.26,1.1,0.38,1.65l-2.53,0.82c-1.62,0.53-2.5,2.26-1.98,3.87l4.89,15.05
			c0.52,1.62,2.26,2.5,3.87,1.97l2.54-0.82c0.23,0.51,0.46,1.02,0.7,1.53l-2.32,1.34c-1.47,0.85-1.98,2.73-1.13,4.2l7.92,13.71
			c0.85,1.47,2.73,1.98,4.2,1.12l2.35-1.36c0.33,0.46,0.64,0.92,0.97,1.37l-2,1.8c-1.26,1.13-1.36,3.08-0.23,4.34l10.59,11.76
			c1.13,1.26,3.08,1.37,4.34,0.23l2.01-1.81c0.41,0.38,0.84,0.74,1.26,1.11l-1.6,2.2c-1,1.37-0.69,3.29,0.68,4.29l12.81,9.3
			c1.37,1,3.29,0.7,4.29-0.68l1.58-2.18c0.48,0.29,0.97,0.56,1.45,0.84l-1.09,2.46c-0.69,1.55,0.01,3.36,1.56,4.06l14.46,6.44
			c1.55,0.69,3.37-0.01,4.06-1.56l1.08-2.43c0.54,0.18,1.06,0.37,1.6,0.54l-0.55,2.58c-0.35,1.66,0.71,3.29,2.37,3.65l15.49,3.29
			c1.66,0.36,3.29-0.71,3.65-2.37l0.55-2.6c0.56,0.06,1.11,0.13,1.67,0.19v2.65c0,1.69,1.37,3.08,3.07,3.08h15.83
			c1.7,0,3.07-1.38,3.07-3.08v-2.65c0.56-0.06,1.12-0.13,1.68-0.19l0.56,2.6c0.35,1.66,1.98,2.72,3.65,2.37l15.48-3.29
			c1.66-0.35,2.72-1.98,2.37-3.64l-0.55-2.59c0.54-0.17,1.07-0.36,1.6-0.54l1.09,2.44c0.69,1.55,2.51,2.25,4.06,1.56l14.46-6.44
			c1.55-0.69,2.25-2.51,1.56-4.06l-1.09-2.46c0.49-0.28,0.97-0.55,1.46-0.84l1.58,2.18c1,1.37,2.92,1.68,4.3,0.68l12.8-9.3
			c1.38-1,1.68-2.92,0.68-4.29l-1.6-2.2c0.42-0.37,0.85-0.74,1.26-1.12l2.01,1.81c1.26,1.14,3.21,1.04,4.34-0.23l10.59-11.76
			c1.14-1.26,1.03-3.2-0.23-4.34l-2-1.8c0.33-0.45,0.65-0.92,0.97-1.37l2.35,1.35c1.47,0.85,3.35,0.35,4.2-1.13l7.92-13.71
			c0.85-1.47,0.34-3.35-1.13-4.2l-2.32-1.34c0.24-0.51,0.47-1.02,0.7-1.53l2.54,0.82c1.61,0.53,3.35-0.36,3.87-1.97l4.89-15.05
			c0.52-1.61-0.36-3.35-1.98-3.87l-2.52-0.82c0.12-0.55,0.26-1.09,0.37-1.65l2.61,0.27c1.69,0.18,3.2-1.05,3.38-2.74l1.65-15.74
			C218.71,163.9,217.49,162.39,215.8,162.22z M99.99,243.56c-45.46,0-82.44-37-82.44-82.46c0-45.47,36.98-82.47,82.44-82.47
			c45.47,0,82.46,36.99,82.46,82.47C182.45,206.57,145.46,243.56,99.99,243.56z"/>
		<path class="st6" d="M100,40.84c-66.31,0-120.25,53.95-120.25,120.25c0,66.31,53.94,120.25,120.25,120.25
			c66.31,0,120.25-53.94,120.25-120.25C220.25,94.78,166.31,40.84,100,40.84z M99.99,249.35c-48.65,0-88.23-39.59-88.23-88.25
			c0-48.67,39.58-88.26,88.23-88.26c48.66,0,88.25,39.59,88.25,88.26C188.24,209.76,148.65,249.35,99.99,249.35z"/>
	</g>
</g>
</svg>
