<?xml version="1.0" encoding="utf-8"?>
<!-- Generator: Adobe Illustrator 23.0.1, SVG Export Plug-In . SVG Version: 6.00 Build 0)  -->
<svg version="1.1" id="Слой_1" xmlns="http://www.w3.org/2000/svg" xmlns:xlink="http://www.w3.org/1999/xlink" x="0px" y="0px"
	 viewBox="0 0 200 200" style="enable-background:new 0 0 200 200;" xml:space="preserve">
<style type="text/css">
	.st0{fill:#5B595A;}
	.st1{fill:#FBC800;}
	.st2{fill:#262524;}
	.st3{fill:#2E2C29;}
</style>
<g>
	<circle class="st0" cx="100" cy="100" r="99"/>
	<g>
		<g id="XMLID_6_">
			<g>
				<path class="st1" d="M89.58,150.1c-0.31-0.49-0.62-0.97-0.92-1.48c-0.32-0.52-0.63-1.06-0.94-1.61
					c-0.32-0.55-0.65-1.13-0.96-1.71c-0.34-0.65-0.7-1.31-1.02-1.99c-0.34-0.67-0.67-1.36-0.99-2.06c-0.16-0.34-0.32-0.68-0.47-1.04
					c-0.15-0.33-0.29-0.65-0.42-0.97c-0.02-0.03-0.03-0.07-0.05-0.1c-0.44-1.04-0.88-2.1-1.27-3.18c-0.26-0.65-0.5-1.3-0.71-1.96
					c-0.05-0.1-0.08-0.2-0.11-0.29c-0.26-0.78-0.52-1.54-0.76-2.34c-0.26-0.78-0.49-1.57-0.73-2.37c-0.23-0.81-0.44-1.62-0.65-2.43
					c-0.08-0.29-0.16-0.6-0.23-0.89c-0.23-0.87-0.44-1.78-0.63-2.68c0-0.02-0.02-0.05-0.02-0.06c-0.13-0.62-0.26-1.23-0.37-1.87
					c-0.05-0.19-0.1-0.41-0.13-0.62c-0.1-0.49-0.18-0.98-0.26-1.46c-0.1-0.52-0.19-1.04-0.28-1.56c-0.11-0.73-0.23-1.46-0.32-2.21
					c-0.13-0.88-0.24-1.77-0.34-2.66c-0.03-0.28-0.06-0.55-0.1-0.83c-0.08-0.89-0.18-1.78-0.24-2.68c-0.02-0.13-0.02-0.28-0.03-0.41
					c-0.02-0.32-0.05-0.65-0.07-0.97c-0.03-0.44-0.06-0.89-0.08-1.33c-0.02-0.29-0.03-0.6-0.05-0.89c-0.03-0.36-0.03-0.72-0.05-1.09
					c0-0.15-0.02-0.29-0.02-0.46c-0.02-0.37-0.03-0.75-0.03-1.12c0-0.19-0.02-0.41-0.02-0.6c-0.02-0.72-0.02-1.45-0.02-2.17
					c0-0.21,0-0.42,0-0.63c0-0.7,0-1.4,0.03-2.09c0.02-0.89,0.05-1.78,0.1-2.68c0.02-0.65,0.05-1.28,0.1-1.92
					c0-0.16,0.02-0.31,0.03-0.45c0.02-0.36,0.05-0.71,0.08-1.07c0-0.15,0.02-0.28,0.03-0.42c0.07-0.78,0.15-1.57,0.23-2.34
					c0.08-0.84,0.18-1.69,0.29-2.52c0.15-1.07,0.29-2.13,0.45-3.18c0.02-0.05,0.02-0.11,0.03-0.16c0.18-1.1,0.37-2.21,0.58-3.29
					c0.02-0.08,0.03-0.18,0.05-0.26c0.18-0.86,0.36-1.7,0.53-2.53c0.08-0.42,0.18-0.84,0.29-1.25c0.18-0.76,0.37-1.53,0.57-2.27
					c0.02-0.07,0.03-0.13,0.05-0.19c0.2-0.75,0.41-1.49,0.63-2.22c0.05-0.21,0.11-0.41,0.18-0.62c0.6-2,1.25-3.93,1.96-5.81
					c0.36-0.92,0.71-1.85,1.09-2.76c0,0,0.02,0,0.02-0.02c0.34-0.83,0.7-1.66,1.09-2.47c0.08-0.19,0.16-0.39,0.26-0.57
					c0.75-1.62,1.56-3.18,2.4-4.69c0.42-0.76,0.86-1.51,1.3-2.22c0.03-0.06,0.08-0.13,0.11-0.19c0.47-0.75,0.94-1.48,1.43-2.19
					c0.28-0.44,0.58-0.86,0.89-1.28c0.15-0.23,0.31-0.45,0.47-0.68c0.57-0.76,1.14-1.49,1.7-2.21c0.03-0.03,0.06-0.08,0.1-0.11
					c0.42-0.52,0.86-1.02,1.28-1.51c0.44-0.5,0.88-0.99,1.33-1.44c0.44-0.47,0.89-0.93,1.35-1.36c0.45-0.44,0.92-0.88,1.39-1.28
					c0.44-0.41,0.89-0.78,1.35-1.15c0.23-0.18,0.45-0.37,0.68-0.55c0.39-0.31,0.78-0.6,1.19-0.88c0.1-0.06,0.18-0.13,0.28-0.19
					c0.49-0.34,0.96-0.68,1.46-0.99c0.49-0.31,0.99-0.62,1.49-0.91c0.5-0.28,0.99-0.55,1.51-0.81h0.02
					c0.37-0.19,0.75-0.36,1.12-0.54c0.36-0.18,0.71-0.32,1.09-0.49c0.52-0.21,1.04-0.41,1.58-0.58c0.26-0.1,0.52-0.18,0.78-0.28
					c0.26-0.08,0.52-0.16,0.8-0.23c0.26-0.08,0.54-0.16,0.8-0.23c0.52-0.13,1.07-0.24,1.61-0.36c0.26-0.05,0.52-0.1,0.78-0.15h0.02
					c0.03,0,0.05-0.02,0.08-0.02c0.29-0.05,0.58-0.08,0.87-0.13c0.28-0.03,0.54-0.07,0.81-0.1c0.15,0,0.28-0.02,0.42-0.03
					c0.16,0,0.34-0.02,0.54-0.03l0.08,0.39c-3.34,0.6-6.59,1.83-9.68,3.6c-5.48,3.13-10.49,8-14.75,14.24
					c-4.3,6.31-7.82,14.01-10.27,22.68c-2.47,8.75-3.83,18.44-3.83,28.65c0,10.21,1.36,19.9,3.83,28.63
					c2.45,8.68,5.97,16.38,10.27,22.68c4.27,6.25,9.27,11.1,14.75,14.25c3.08,1.77,6.33,2.99,9.68,3.59l-0.08,0.41
					c-1.25-0.08-2.48-0.24-3.72-0.5h-0.03c-0.15-0.03-0.29-0.06-0.44-0.1c-0.16-0.03-0.31-0.06-0.47-0.11
					c-0.16-0.03-0.31-0.06-0.47-0.11c-0.15-0.03-0.31-0.08-0.47-0.11c-0.76-0.21-1.51-0.46-2.26-0.73
					c-0.52-0.19-1.04-0.39-1.56-0.62c-0.31-0.13-0.6-0.26-0.91-0.41c-0.21-0.1-0.42-0.2-0.63-0.31c-0.23-0.1-0.44-0.21-0.65-0.33
					c-0.06-0.03-0.13-0.06-0.18-0.08c-0.24-0.13-0.47-0.26-0.7-0.39c-0.34-0.2-0.7-0.39-1.04-0.6c-0.16-0.08-0.31-0.18-0.47-0.28
					c-0.72-0.45-1.43-0.93-2.11-1.43c-0.49-0.36-0.97-0.72-1.45-1.11c-0.47-0.37-0.96-0.76-1.41-1.17c-0.06-0.07-0.15-0.13-0.21-0.2
					c-0.32-0.29-0.66-0.58-0.97-0.88c-0.08-0.07-0.15-0.13-0.21-0.2c-0.45-0.44-0.91-0.89-1.36-1.34c-0.63-0.67-1.28-1.35-1.9-2.08
					c-0.29-0.34-0.58-0.68-0.88-1.04c-0.13-0.16-0.28-0.32-0.41-0.48c-0.07-0.08-0.13-0.16-0.18-0.24
					c-0.06-0.06-0.13-0.15-0.19-0.23c-0.29-0.37-0.58-0.76-0.88-1.15c-0.23-0.31-0.44-0.6-0.67-0.91c-0.18-0.26-0.36-0.52-0.54-0.78
					c-0.29-0.41-0.58-0.83-0.84-1.26C89.71,150.29,89.64,150.2,89.58,150.1z"/>
				<path class="st2" d="M102.31,129.52c-0.18-0.34-0.34-0.7-0.52-1.04c0.21-0.39,0.44-0.75,0.65-1.13
					c0.08-0.16,0.15-0.33,0.23-0.49c0.45-0.91,0.91-1.84,1.32-2.81c0.16-0.37,0.31-0.76,0.45-1.13c0.31-0.78,0.63-1.56,0.91-2.36
					c0.16-0.45,0.29-0.92,0.44-1.38c0.24-0.74,0.49-1.51,0.7-2.27c0.15-0.53,0.28-1.09,0.41-1.62c0.21-0.83,0.41-1.67,0.58-2.53
					c0.03-0.13,0.07-0.28,0.08-0.41c0.24-1.23,0.44-2.47,0.62-3.73c0.02-0.13,0.03-0.24,0.05-0.37c0.18-1.33,0.31-2.68,0.39-4.04
					c0.02-0.08,0.02-0.15,0.02-0.23c0.1-1.39,0.15-2.82,0.15-4.25c0-1.43-0.05-2.86-0.15-4.25c0-0.1-0.02-0.21-0.02-0.31
					c-0.1-1.36-0.23-2.73-0.39-4.06c-0.02-0.05-0.02-0.11-0.03-0.16c-0.18-1.31-0.39-2.61-0.63-3.9c-0.02-0.06-0.03-0.15-0.05-0.23
					c-0.26-1.3-0.55-2.6-0.89-3.85c0-0.02-0.02-0.03-0.02-0.05c-0.34-1.25-0.71-2.47-1.12-3.67c-0.07-0.18-0.13-0.34-0.2-0.52
					c-0.32-0.94-0.68-1.87-1.06-2.76c-0.11-0.28-0.22-0.55-0.34-0.83c-0.45-1.04-0.93-2.04-1.43-3.02
					c-0.02-0.02-0.02-0.03-0.03-0.05c-0.21-0.41-0.44-0.76-0.65-1.15c-1.51,3.05-2.81,6.36-3.8,9.97C96.38,86.63,95.5,93,95.5,99.67
					c0,6.69,0.88,13.05,2.47,18.8C99.07,122.49,100.55,126.19,102.31,129.52z M163.53,74.38c1.96,7.94,3.03,16.57,3.03,25.63
					c0,9.04-1.07,17.69-3.03,25.61c-1.98,7.97-4.85,15.26-8.44,21.51c-3.64,6.32-8,11.57-12.92,15.44
					c-4.98,3.9-10.55,6.35-16.49,6.91c-2.58,0.24-5.13,0.13-7.61-0.32c-3.34-0.6-6.59-1.82-9.68-3.59
					c-5.48-3.15-10.49-8-14.75-14.25c-4.3-6.3-7.82-13.99-10.27-22.68c-2.47-8.73-3.83-18.42-3.83-28.63
					c0-10.21,1.36-19.9,3.83-28.65c2.45-8.67,5.97-16.36,10.27-22.68c4.27-6.23,9.27-11.1,14.75-14.24c3.08-1.77,6.33-3,9.68-3.6
					c2.48-0.45,5.03-0.57,7.61-0.32c5.94,0.57,11.51,3.02,16.49,6.93c4.92,3.85,9.28,9.12,12.92,15.44
					C158.68,59.12,161.55,66.41,163.53,74.38z"/>
				<path class="st3" d="M117.79,30.46c0.03,0,0.06,0,0.19,0c-0.19,0.02-0.37,0.03-0.54,0.03c0.05-0.02,0.1-0.02,0.15-0.02
					C117.63,30.47,117.66,30.47,117.79,30.46z"/>
				<path class="st3" d="M117.45,30.49c-0.15,0.02-0.28,0.03-0.42,0.03c-0.15,0.02-0.29,0.03-0.42,0.03l-0.75,0.03
					C116.38,30.55,116.91,30.52,117.45,30.49z"/>
				<path class="st3" d="M115.86,30.59l0.75-0.03c-1.13,0.08-2.21,0.16-4.97,0.34c0.78-0.07,1.59-0.13,2.43-0.18
					C114.66,30.67,115.26,30.63,115.86,30.59z"/>
				<path class="st3" d="M113.8,168.96c0.15,0.03,0.29,0.07,0.44,0.1c-0.31-0.06-0.6-0.13-0.91-0.21
					C113.49,168.89,113.64,168.93,113.8,168.96z"/>
				<path class="st3" d="M114.23,169.06l-7.19-0.47c1.66-0.03,3.3-0.03,5.34,0.03c0.16,0.03,0.32,0.08,0.47,0.11
					c0.16,0.05,0.31,0.08,0.47,0.11C113.64,168.93,113.93,168.99,114.23,169.06z"/>
				<path class="st3" d="M105.99,31.24l8.08-0.52c-0.84,0.05-1.65,0.11-2.43,0.18c-0.13,0-0.26,0.02-0.41,0.02
					c-0.05,0.02-0.1,0.02-0.15,0.02C109.79,31.01,108.13,31.11,105.99,31.24z"/>
				<path class="st3" d="M112.86,31.27c0.26-0.07,0.54-0.13,0.8-0.2c0.26-0.06,0.54-0.11,0.81-0.16
					C113.93,31.02,113.38,31.14,112.86,31.27z"/>
				<path class="st3" d="M112.06,31.5c-0.28,0.06-0.54,0.15-0.8,0.23C111.52,31.64,111.8,31.56,112.06,31.5z"/>
				<path class="st3" d="M107.66,166.87c-0.18-0.08-0.36-0.16-0.54-0.24c-0.26-0.13-0.5-0.24-0.75-0.39
					c0.21,0.11,0.42,0.23,0.65,0.33C107.24,166.67,107.45,166.77,107.66,166.87z"/>
				<path class="st3" d="M105.5,165.76c0.23,0.13,0.45,0.26,0.7,0.39C105.96,166.02,105.73,165.91,105.5,165.76z"/>
				<path class="st3" d="M104.46,165.16c0.34,0.21,0.7,0.41,1.04,0.6C105.15,165.58,104.81,165.39,104.46,165.16z"/>
				<path class="st3" d="M102.21,36.32h0.02c-0.1,0.07-0.18,0.13-0.28,0.19C102.03,36.45,102.13,36.38,102.21,36.32z"/>
				<path class="st3" d="M99.14,31.67l-2.34,0.16c0.26-0.03,0.52-0.05,0.78-0.07C98.04,31.75,98.59,31.72,99.14,31.67z"/>
				<path class="st3" d="M97.84,160.11c0.31,0.29,0.65,0.58,0.97,0.88C98.49,160.71,98.17,160.42,97.84,160.11z"/>
				<path class="st3" d="M96.41,32.65c0.45-0.15,0.91-0.26,1.36-0.39c0.44-0.11,0.89-0.21,1.36-0.31c0.45-0.1,0.91-0.18,1.36-0.24
					c0.45-0.08,0.93-0.13,1.38-0.18c0.36-0.03,0.71-0.06,1.07-0.1c0.36-0.02,0.73-0.05,1.09-0.07c0.7-0.05,1.35-0.08,1.95-0.13
					c2.14-0.13,3.8-0.23,5.1-0.31C105.2,31.4,100.79,31.88,96.41,32.65z"/>
				<path class="st3" d="M95.83,167.17c-0.49-0.86,2.08-2.14,8.17-2.29c0.16,0.1,0.31,0.2,0.47,0.28c0.34,0.23,0.68,0.42,1.04,0.6
					c0.23,0.15,0.45,0.26,0.7,0.39c0.05,0.02,0.11,0.05,0.18,0.08c0.24,0.15,0.49,0.26,0.75,0.39c0.18,0.08,0.36,0.16,0.54,0.24
					c0.31,0.15,0.6,0.28,0.91,0.41c0.52,0.23,1.04,0.42,1.56,0.62c-3.62-0.06-7.22,0.44-10.84,0.2c-0.29-0.05-0.58-0.11-0.88-0.18
					c-0.28-0.07-0.57-0.15-0.86-0.21c-0.29-0.08-0.57-0.16-0.86-0.24C96.41,167.35,96.12,167.27,95.83,167.17z"/>
				<path class="st3" d="M97.34,40.37c-0.46,0.44-0.91,0.89-1.35,1.36C96.43,41.27,96.88,40.81,97.34,40.37z"/>
				<path class="st3" d="M92.61,165.91c-0.44-0.2-0.88-0.41-1.3-0.63c-0.44-0.21-0.88-0.45-1.3-0.68c-0.42-0.24-0.84-0.5-1.27-0.76
					c-0.42-0.26-0.84-0.54-1.25-0.81c-0.28-1.8,2.35-3.96,8.76-4.44c0.45,0.45,0.91,0.91,1.36,1.34c0.06,0.07,0.13,0.13,0.21,0.2
					c0.32,0.31,0.65,0.6,0.97,0.88c0.07,0.07,0.15,0.13,0.21,0.2c0.45,0.41,0.94,0.8,1.41,1.17c0.47,0.39,0.96,0.75,1.45,1.11
					C94.5,163.75,92.94,165.27,92.61,165.91z"/>
				<path class="st3" d="M95.28,31.93c-0.21,0.02-0.42,0.03-0.63,0.05c-0.03-0.02-0.06-0.02-0.11,0L95.28,31.93z"/>
				<path class="st3" d="M93.09,154.97c0.13,0.16,0.28,0.32,0.41,0.48C93.36,155.29,93.22,155.13,93.09,154.97z"/>
				<path class="st3" d="M92.71,154.5c0.06,0.08,0.13,0.16,0.19,0.23C92.83,154.64,92.78,154.56,92.71,154.5z"/>
				<path class="st3" d="M90.63,151.66c0.18,0.26,0.36,0.52,0.54,0.78c-0.47-0.67-0.94-1.35-1.38-2.04
					C90.05,150.83,90.34,151.25,90.63,151.66z"/>
				<path class="st3" d="M90.37,48.72c0.23-0.34,0.47-0.68,0.73-1.02c-0.31,0.42-0.62,0.84-0.89,1.28
					C90.26,48.9,90.31,48.8,90.37,48.72z"/>
				<path class="st3" d="M88.04,36.62c0.42-0.26,0.84-0.54,1.27-0.78c0.42-0.26,0.84-0.5,1.27-0.73c0.44-0.23,0.86-0.45,1.3-0.67
					c0.42-0.21,0.86-0.41,1.3-0.6c6.44-1.72,15.18-2.55,22.08-3.08c-0.26,0.05-0.52,0.1-0.78,0.15c-0.28,0.05-0.55,0.1-0.81,0.16
					c-0.26,0.07-0.54,0.13-0.8,0.2c-0.26,0.06-0.54,0.15-0.8,0.23c-0.26,0.06-0.54,0.15-0.8,0.23c-0.26,0.1-0.52,0.18-0.78,0.28
					c-0.54,0.18-1.06,0.37-1.58,0.58C100.4,33.51,93.77,34.79,88.04,36.62z"/>
				<path class="st3" d="M89.58,150.1c0.06,0.1,0.13,0.19,0.21,0.29c0.44,0.7,0.91,1.38,1.38,2.04c0.23,0.31,0.44,0.6,0.67,0.91
					c0.29,0.39,0.58,0.78,0.88,1.15c0.06,0.07,0.11,0.15,0.19,0.23c0.05,0.08,0.11,0.16,0.18,0.24c0.13,0.16,0.28,0.32,0.41,0.48
					c0.29,0.36,0.58,0.7,0.88,1.04c-7.3,0.67-9.32,2.97-9.87,4.27c-0.39-0.33-0.8-0.67-1.18-1.02c-0.39-0.34-0.78-0.7-1.17-1.07
					c-0.39-0.37-0.76-0.75-1.15-1.13c-0.37-0.37-0.75-0.78-1.12-1.19c-0.05-2.53,2.92-5.61,9.58-6.45
					C89.5,149.97,89.53,150.03,89.58,150.1z"/>
				<path class="st3" d="M89.21,50.49c0.32-0.52,0.67-1.01,1.01-1.51c-0.49,0.71-0.96,1.44-1.43,2.19
					C88.93,50.94,89.06,50.71,89.21,50.49z"/>
				<path class="st3" d="M88.09,52.34c0.19-0.32,0.39-0.65,0.58-0.97c-0.44,0.71-0.88,1.46-1.3,2.22
					C87.6,53.16,87.84,52.74,88.09,52.34z"/>
				<path class="st3" d="M85.73,143.31c0.32,0.68,0.68,1.35,1.02,1.99c0.31,0.57,0.63,1.15,0.96,1.71c0.03,0.08,0.06,0.15,0.11,0.23
					c-7.14,0.99-9.71,3.8-10.62,5.97c-0.34-0.45-0.7-0.91-1.04-1.38c-0.34-0.47-0.68-0.94-1.02-1.43c-0.32-0.47-0.65-0.97-0.97-1.48
					c-0.32-0.48-0.65-1-0.96-1.52c0.32-3.29,3.72-7.13,10.58-8.26c0.02,0.03,0.03,0.06,0.05,0.1c0.13,0.34,0.28,0.65,0.42,0.97
					c0.15,0.35,0.31,0.7,0.47,1.04C85.07,141.95,85.39,142.65,85.73,143.31z"/>
				<path class="st3" d="M85.51,57.12c-0.18,0.37-0.36,0.76-0.54,1.15c-0.1,0.18-0.18,0.37-0.26,0.57
					c-0.06,0.11-0.13,0.24-0.18,0.36c-0.31,0.7-0.62,1.4-0.91,2.11l-0.02,0.02c-0.31,0.73-0.6,1.46-0.88,2.19
					c-0.08,0.19-0.15,0.37-0.21,0.57c-0.23,0.55-0.42,1.12-0.63,1.69C74.65,67.4,68.79,70.52,64,75.3c0.18-0.68,0.36-1.36,0.54-2.04
					c0.18-0.68,0.37-1.35,0.57-2.01c0.19-0.67,0.39-1.33,0.6-1.98c0.21-0.65,0.42-1.3,0.65-1.93C70.72,62.5,77.88,58.68,85.51,57.12
					z"/>
				<path class="st3" d="M84.53,59.2c0.05-0.11,0.11-0.24,0.18-0.36c-0.39,0.81-0.75,1.64-1.09,2.47
					C83.91,60.6,84.22,59.9,84.53,59.2z"/>
				<path class="st3" d="M85.02,38.82c5.26-2.35,12.94-4.2,21.67-5.21c-0.52,0.26-1.01,0.54-1.51,0.81c-0.5,0.29-1.01,0.6-1.49,0.91
					c-0.5,0.31-0.97,0.65-1.46,0.99h-0.02c-0.08,0.07-0.18,0.13-0.26,0.19c-0.41,0.28-0.8,0.57-1.19,0.88
					c-7.95,1.15-14.62,3.02-20.4,5.75c0.37-0.41,0.75-0.78,1.14-1.17c0.37-0.37,0.76-0.75,1.15-1.1c0.39-0.36,0.78-0.71,1.18-1.06
					C84.22,39.46,84.63,39.14,85.02,38.82z"/>
				<path class="st3" d="M83.85,139.24c0.13,0.32,0.28,0.65,0.42,0.97C84.13,139.89,83.98,139.58,83.85,139.24z"/>
				<path class="st3" d="M83.62,61.31c0,0.02-0.02,0.02-0.02,0.02L83.62,61.31z"/>
				<path class="st3" d="M83.61,61.33c-0.37,0.91-0.73,1.83-1.09,2.76c0.06-0.19,0.13-0.37,0.21-0.57
					C83.01,62.79,83.3,62.06,83.61,61.33z"/>
				<path class="st3" d="M81.82,134c0.21,0.67,0.45,1.32,0.71,1.96c-0.2-0.47-0.37-0.97-0.55-1.46
					C81.92,134.34,81.87,134.17,81.82,134z"/>
				<path class="st3" d="M80.78,69.14c-0.08,0.26-0.16,0.5-0.23,0.76c-0.06,0.21-0.13,0.41-0.18,0.62
					c-0.11,0.32-0.21,0.67-0.31,1.01c-0.11,0.39-0.21,0.81-0.32,1.22c-0.02,0.06-0.03,0.13-0.05,0.19c-0.1,0.34-0.2,0.68-0.28,1.02
					c-0.1,0.42-0.19,0.83-0.29,1.25c-0.11,0.41-0.21,0.83-0.29,1.25c-0.19,0.83-0.37,1.67-0.53,2.53
					c-6.95,1.66-12.56,5.11-16.69,10.27c0.08-0.75,0.16-1.49,0.26-2.24c0.08-0.75,0.18-1.48,0.29-2.21c0.1-0.75,0.21-1.48,0.34-2.19
					c0.11-0.73,0.24-1.44,0.37-2.18C65.82,76.26,72.07,71.08,80.78,69.14z"/>
				<path class="st3" d="M80.38,70.52c-0.23,0.73-0.44,1.48-0.63,2.22c0.11-0.41,0.21-0.83,0.32-1.22
					C80.17,71.18,80.26,70.84,80.38,70.52z"/>
				<path class="st3" d="M79.42,73.96c0.08-0.34,0.18-0.68,0.28-1.02c-0.2,0.75-0.39,1.51-0.57,2.27
					C79.22,74.78,79.32,74.38,79.42,73.96z"/>
				<path class="st3" d="M78.83,76.46c-0.18,0.83-0.36,1.67-0.53,2.53C78.46,78.13,78.64,77.28,78.83,76.46z"/>
				<path class="st3" d="M78.61,122.57c-0.1-0.5-0.21-1.01-0.29-1.51c0.11,0.63,0.24,1.25,0.37,1.87
					C78.66,122.81,78.64,122.68,78.61,122.57z"/>
				<path class="st3" d="M77.93,118.98c0.08,0.48,0.16,0.97,0.26,1.46c0.03,0.21,0.08,0.42,0.13,0.62c0.08,0.5,0.19,1.01,0.29,1.51
					c0.03,0.11,0.05,0.24,0.08,0.36c0,0.02,0.02,0.05,0.02,0.06c-6.12,1.32-10.37,4.3-12.64,8.85c-0.21-0.65-0.42-1.3-0.62-1.97
					c-0.21-0.65-0.41-1.31-0.6-1.98c-0.18-0.68-0.37-1.35-0.55-2.03c-0.18-0.68-0.34-1.36-0.5-2.06c1.2-4.06,5.37-9.43,13.2-11.25
					c0.1,0.89,0.21,1.79,0.34,2.66c0.1,0.75,0.21,1.48,0.32,2.21c0.02,0.15,0.05,0.28,0.06,0.42
					C77.78,118.23,77.84,118.61,77.93,118.98z"/>
				<path class="st3" d="M77.65,117.42c0.08,0.52,0.18,1.04,0.28,1.56c-0.08-0.37-0.15-0.75-0.21-1.14
					C77.7,117.7,77.67,117.57,77.65,117.42z"/>
				<path class="st3" d="M77.68,46.22c5.06-3.25,12.94-5.91,21.05-7.13c-0.47,0.41-0.94,0.84-1.39,1.28
					c-0.46,0.44-0.91,0.89-1.35,1.36c-0.45,0.45-0.89,0.94-1.33,1.44c-0.42,0.49-0.86,0.99-1.28,1.51
					c-7.68,1.35-14.14,3.7-19.75,7.24c0.32-0.52,0.65-1.01,0.97-1.51c0.32-0.49,0.67-0.97,1.01-1.44c0.32-0.49,0.67-0.96,1.02-1.41
					C76.97,47.11,77.32,46.66,77.68,46.22z"/>
				<path class="st3" d="M77.24,85.35c0.11-0.89,0.24-1.77,0.39-2.65c-0.16,1.05-0.31,2.11-0.45,3.18
					C77.19,85.71,77.23,85.53,77.24,85.35z"/>
				<path class="st3" d="M76.92,88.03c0.08-0.73,0.16-1.44,0.26-2.14c-0.11,0.83-0.21,1.67-0.29,2.52
					C76.89,88.27,76.9,88.16,76.92,88.03z"/>
				<path class="st3" d="M76.56,91.94c0.02-0.26,0.03-0.52,0.06-0.78c-0.03,0.36-0.06,0.71-0.08,1.07
					C76.55,92.14,76.56,92.04,76.56,91.94z"/>
				<path class="st3" d="M76.55,107.67c-0.03-0.37-0.05-0.76-0.08-1.15c0-0.07,0-0.11,0-0.18
					C76.48,106.78,76.51,107.23,76.55,107.67z"/>
				<path class="st3" d="M76.37,104.36c0.02,0.37,0.02,0.73,0.05,1.09C76.38,105.09,76.38,104.73,76.37,104.36z"/>
				<path class="st3" d="M76.32,102.78c0,0.37,0.02,0.75,0.03,1.12c-0.02-0.1-0.02-0.19-0.02-0.29
					C76.32,103.33,76.32,103.06,76.32,102.78z"/>
				<path class="st3" d="M62.34,116.43c-0.11-0.73-0.21-1.46-0.32-2.19c-0.1-0.75-0.18-1.49-0.28-2.24
					c-0.08-0.75-0.15-1.49-0.23-2.24c1.77-4.42,6.7-10.27,14.79-12.29c0,0.21,0,0.42-0.02,0.63c0,0.21,0,0.42,0,0.63
					c0,0.21,0,0.42,0,0.63c0,0.21,0,0.42,0,0.63c0,0.73,0,1.46,0.02,2.17c0,0.19,0.02,0.41,0.02,0.6c0,0.28,0,0.55,0.02,0.83
					c0,0.1,0,0.2,0.02,0.29c0,0.16,0.02,0.31,0.02,0.46c0.02,0.37,0.02,0.73,0.05,1.09c0.02,0.29,0.03,0.6,0.05,0.89
					c0,0.07,0,0.11,0,0.18c0.03,0.39,0.05,0.78,0.08,1.15c0.02,0.33,0.05,0.65,0.07,0.97c-6.35,1.54-11.02,4.89-13.89,9.97
					C62.59,117.9,62.46,117.16,62.34,116.43z"/>
				<path class="st3" d="M91.1,47.69c-0.26,0.34-0.5,0.68-0.73,1.02c-0.06,0.08-0.11,0.18-0.16,0.26c-0.34,0.5-0.68,0.99-1.01,1.51
					c-0.15,0.23-0.28,0.45-0.42,0.68c-0.03,0.07-0.08,0.13-0.11,0.19c-0.19,0.32-0.39,0.65-0.58,0.97
					c-0.24,0.41-0.49,0.83-0.71,1.25c-0.13,0.23-0.24,0.44-0.37,0.67c-7.45,1.49-13.63,4.27-18.91,8.5c0.24-0.62,0.5-1.22,0.76-1.8
					c0.26-0.6,0.54-1.18,0.81-1.77c0.28-0.57,0.55-1.14,0.83-1.7c0.29-0.57,0.58-1.12,0.88-1.67c4.79-4.09,12.35-7.39,20.21-8.8
					C91.41,47.24,91.25,47.47,91.1,47.69z"/>
				<path class="st3" d="M75.72,33.2c4.3-0.28,8.6-0.55,12.9-0.84c-0.02,0.02-0.03,0.03-0.07,0.05c-0.47,0.05-0.92,0.11-1.4,0.18
					c-0.47,0.08-0.93,0.16-1.38,0.26c-0.47,0.1-0.93,0.21-1.38,0.34c-0.45,0.11-0.91,0.24-1.36,0.39c-0.5-0.65-2.3-0.65-7.89-0.32
					c0.06-0.02,0.13-0.02,0.19-0.02c0.06-0.02,0.13-0.02,0.19-0.02S75.67,33.2,75.72,33.2z"/>
				<path class="st3" d="M82.53,135.96c-5.92,1.09-9.8,3.6-11.56,7.52c-0.29-0.55-0.57-1.12-0.84-1.69
					c-0.28-0.57-0.55-1.15-0.83-1.73c-0.26-0.59-0.54-1.17-0.8-1.77c-0.24-0.6-0.5-1.2-0.75-1.82c0.71-3.6,4.24-8.36,11.8-9.9
					c0.21,0.81,0.42,1.62,0.65,2.43c0.24,0.8,0.47,1.59,0.73,2.37c0.24,0.8,0.5,1.56,0.76,2.34c0.03,0.1,0.06,0.19,0.11,0.29
					c0.05,0.18,0.1,0.34,0.16,0.5C82.16,134.99,82.34,135.49,82.53,135.96z"/>
				<path class="st3" d="M72.07,166.31c-0.03,0-0.08,0-0.11,0c-0.13-0.02-0.26-0.05-0.37-0.08C71.74,166.26,71.9,166.3,72.07,166.31
					z"/>
				<path class="st3" d="M71.74,33.74c-0.16,0.03-0.32,0.06-0.49,0.1C71.42,33.8,71.58,33.77,71.74,33.74z"/>
				<path class="st3" d="M70.57,166c2.16,0.18,4.64,0.42,7.27,0.7c-1.74-0.11-4.03-0.28-5.78-0.39c-0.16-0.02-0.32-0.05-0.49-0.08
					c-0.13-0.02-0.26-0.05-0.39-0.08C70.98,166.1,70.77,166.05,70.57,166z"/>
				<path class="st3" d="M74.63,37.6c-0.67-1.57-3.04-2.17-8.47-2.17c0.52-0.21,1.05-0.41,1.57-0.58c0.54-0.2,1.07-0.36,1.61-0.52
					c0.53-0.15,1.07-0.29,1.61-0.42c0.1-0.02,0.21-0.05,0.31-0.07c0.16-0.03,0.32-0.06,0.49-0.1c0.28-0.07,0.55-0.11,0.84-0.16h0.02
					c0.07,0,0.13,0,0.2,0c4.85-0.21,7.4-0.08,7.03,1.2c-0.44,0.19-0.89,0.39-1.31,0.6c-0.45,0.23-0.88,0.44-1.31,0.68
					c-0.44,0.23-0.86,0.49-1.3,0.73C75.47,37.05,75.05,37.32,74.63,37.6z"/>
				<path class="st3" d="M70.57,166c0.2,0.05,0.41,0.1,0.62,0.15c-0.13-0.02-0.26-0.05-0.39-0.08
					C70.72,166.05,70.65,166.04,70.57,166z"/>
				<path class="st3" d="M68.17,165.31c-0.02,0-0.05,0-0.07,0c-0.16-0.05-0.31-0.11-0.47-0.18
					C67.81,165.21,67.99,165.26,68.17,165.31z"/>
				<path class="st3" d="M66.94,44.09c-0.97-2.47-3.67-3.64-9.02-3.91c0.32-0.24,0.63-0.49,0.96-0.7c0.16-0.13,0.34-0.24,0.5-0.36
					c0.49-0.34,0.99-0.67,1.49-0.97c0.18-0.11,0.36-0.23,0.54-0.32c0.26-0.16,0.52-0.32,0.8-0.47c0.06-0.03,0.11-0.07,0.18-0.1
					c0.5-0.29,1.01-0.55,1.53-0.81c0.06,0,0.15,0,0.21,0c3.33,0.06,7.74,0.47,7.55,3.29c-0.41,0.32-0.81,0.65-1.22,1.01
					c-0.39,0.34-0.8,0.7-1.18,1.05c-0.39,0.36-0.78,0.73-1.17,1.12C67.7,43.3,67.31,43.68,66.94,44.09z"/>
				<path class="st3" d="M76.46,93.48c-2.47,0.62-10,2.5-15.31,10.68c-0.02-0.34-0.02-0.68-0.03-1.02c0-0.36-0.02-0.7-0.02-1.04
					c-0.02-0.36-0.02-0.7-0.02-1.06c-0.02-0.34-0.02-0.7-0.02-1.04c0-0.44,0-0.88,0.02-1.32c0-0.42,0.02-0.86,0.02-1.28
					c0.02-0.44,0.03-0.86,0.05-1.3c0.02-0.42,0.03-0.86,0.05-1.28c2.39-4.53,7.97-10.1,16.43-12.12c-0.15,0.88-0.28,1.75-0.39,2.65
					c-0.02,0.18-0.05,0.36-0.06,0.54c-0.1,0.7-0.18,1.41-0.26,2.14c-0.02,0.13-0.03,0.24-0.03,0.37c-0.08,0.76-0.16,1.56-0.23,2.34
					c-0.02,0.15-0.03,0.28-0.03,0.42c-0.03,0.26-0.05,0.52-0.06,0.78c0,0.1-0.02,0.19-0.02,0.29c-0.02,0.15-0.03,0.29-0.03,0.45
					C76.5,92.95,76.48,93.21,76.46,93.48z"/>
				<path class="st3" d="M62.15,162.5c4.3,0.57,4.3,0.57,20.78,3.91c0.26,0.08,0.54,0.16,0.8,0.24c0.28,0.07,0.55,0.15,0.81,0.21
					c0.28,0.06,0.55,0.13,0.81,0.19c0.28,0.07,0.55,0.13,0.83,0.18l-3.02-0.2c-5-0.58-9.97-1.25-14.98-1.74
					c-0.18-0.05-0.36-0.1-0.54-0.18c-0.37-0.11-0.75-0.26-1.12-0.41c-0.52-0.21-1.04-0.42-1.56-0.67c-0.54-0.24-1.04-0.49-1.56-0.75
					c-0.52-0.28-1.02-0.55-1.53-0.85C61.95,162.48,62.07,162.5,62.15,162.5z"/>
				<path class="st3" d="M62.2,37.35c-0.28,0.15-0.53,0.31-0.8,0.47C61.66,37.65,61.92,37.5,62.2,37.35z"/>
				<path class="st1" d="M87.5,163.02c0.41,0.28,0.83,0.55,1.25,0.81c0.42,0.26,0.84,0.52,1.27,0.76c0.42,0.23,0.86,0.47,1.3,0.68
					c0.42,0.23,0.86,0.44,1.3,0.63c0.32-0.63,1.88-2.16,9.27-2.45c0.68,0.5,1.39,0.97,2.11,1.43c-6.09,0.15-8.65,1.43-8.17,2.29
					c0.29,0.1,0.58,0.18,0.86,0.28c0.29,0.08,0.57,0.16,0.86,0.24c0.29,0.06,0.58,0.15,0.86,0.21c0.29,0.06,0.58,0.13,0.88,0.18
					c3.62,0.24,7.22-0.26,10.84-0.2c0.75,0.28,1.49,0.52,2.26,0.73c-2.04-0.07-3.68-0.07-5.34-0.03l7.19,0.47h0.03
					c1.23,0.26,2.47,0.42,3.72,0.5l-21.05-1.38l0.02-0.24c-5.23-1.04-10.18-3.52-14.71-7.22c-4.58-3.75-8.72-8.75-12.19-14.74
					c-3.51-6.04-6.33-13.06-8.29-20.83c-1.96-7.79-3.05-16.26-3.05-25.14c0-9.42,1.22-18.38,3.41-26.54
					c2.19-8.12,5.34-15.42,9.22-21.56c3.85-6.07,8.37-11,13.39-14.49c4.89-3.39,10.18-5.41,15.71-5.83c0.08,0,0.16-0.02,0.24-0.02
					l2.27-0.15c-0.36,0.03-0.71,0.06-1.07,0.1c-0.45,0.05-0.93,0.1-1.38,0.18c-0.45,0.06-0.91,0.15-1.36,0.24
					c-0.47,0.1-0.93,0.19-1.36,0.31c-0.45,0.13-0.91,0.24-1.36,0.39c4.38-0.76,8.78-1.25,14.67-1.72c0.05,0,0.1,0,0.15-0.02
					c0.15,0,0.28-0.02,0.41-0.02c2.76-0.18,3.83-0.26,4.97-0.34c0.13,0,0.28-0.02,0.42-0.03c-0.28,0.03-0.54,0.06-0.81,0.1
					c-0.29,0.05-0.58,0.08-0.87,0.13c-0.03,0-0.05,0.02-0.08,0.02h-0.02c-6.9,0.54-15.63,1.36-22.08,3.08
					c-0.44,0.19-0.88,0.39-1.3,0.6c-0.44,0.21-0.86,0.44-1.3,0.67c-0.42,0.23-0.84,0.47-1.27,0.73c-0.42,0.24-0.84,0.52-1.27,0.78
					c5.73-1.83,12.37-3.12,20.87-4.04c-0.37,0.16-0.73,0.31-1.09,0.49c-0.37,0.18-0.75,0.34-1.12,0.54h-0.02
					c-8.74,1.01-16.41,2.86-21.67,5.21c-0.39,0.32-0.79,0.65-1.18,0.99c-0.41,0.34-0.8,0.7-1.18,1.06c-0.39,0.36-0.78,0.73-1.15,1.1
					c-0.39,0.39-0.76,0.76-1.14,1.17c5.78-2.73,12.45-4.59,20.4-5.75c-0.23,0.18-0.45,0.37-0.68,0.55
					c-0.45,0.37-0.91,0.75-1.35,1.15c-8.12,1.22-15.99,3.88-21.05,7.13c-0.36,0.44-0.71,0.89-1.05,1.35
					c-0.36,0.45-0.7,0.92-1.02,1.41c-0.34,0.47-0.68,0.96-1.01,1.44c-0.32,0.5-0.65,0.99-0.97,1.51c5.62-3.54,12.08-5.89,19.75-7.24
					c-0.03,0.03-0.06,0.08-0.1,0.11c-0.57,0.71-1.14,1.44-1.7,2.21c-7.86,1.41-15.42,4.71-20.21,8.8c-0.29,0.55-0.58,1.1-0.88,1.67
					c-0.28,0.57-0.55,1.14-0.83,1.7c-0.28,0.58-0.55,1.17-0.81,1.77c-0.26,0.58-0.52,1.18-0.76,1.8c5.28-4.24,11.46-7.01,18.91-8.5
					c0.13-0.23,0.24-0.44,0.37-0.67c-0.84,1.51-1.66,3.07-2.4,4.69c0.18-0.39,0.36-0.78,0.54-1.15
					c-7.63,1.56-14.79,5.37-19.15,10.21c-0.23,0.63-0.44,1.28-0.65,1.93c-0.21,0.65-0.41,1.31-0.6,1.98
					c-0.19,0.67-0.39,1.33-0.57,2.01c-0.18,0.68-0.36,1.36-0.54,2.04c4.79-4.79,10.65-7.9,17.89-9.53c0.21-0.57,0.41-1.14,0.63-1.69
					c-0.71,1.88-1.36,3.81-1.96,5.81c0.07-0.26,0.15-0.5,0.23-0.76c-8.72,1.95-14.97,7.13-17.9,11.31
					c-0.13,0.73-0.26,1.44-0.37,2.18c-0.13,0.71-0.24,1.44-0.34,2.19c-0.11,0.73-0.21,1.46-0.29,2.21c-0.1,0.75-0.18,1.49-0.26,2.24
					c4.12-5.16,9.74-8.62,16.69-10.27c-0.02,0.08-0.03,0.18-0.05,0.26c-0.21,1.09-0.41,2.19-0.58,3.29
					c-0.02,0.05-0.02,0.11-0.03,0.16c-8.46,2.03-14.04,7.6-16.43,12.12c-0.02,0.42-0.03,0.86-0.05,1.28
					c-0.02,0.44-0.03,0.86-0.05,1.3c0,0.42-0.02,0.86-0.02,1.28c-0.02,0.44-0.02,0.88-0.02,1.32c0,0.34,0,0.7,0.02,1.04
					c0,0.36,0,0.7,0.02,1.06c0,0.34,0.02,0.68,0.02,1.04c0.02,0.34,0.02,0.68,0.03,1.02C66.47,95.98,74,94.1,76.46,93.48
					c0.02-0.28,0.03-0.54,0.05-0.8c-0.05,0.63-0.08,1.27-0.1,1.92c-0.05,0.89-0.08,1.78-0.1,2.68c-0.03,0.7-0.03,1.4-0.03,2.09
					c0-0.21,0-0.42,0-0.63c0-0.21,0-0.42,0-0.63c0.02-0.21,0.02-0.42,0.02-0.63c-8.08,2.01-13.02,7.87-14.79,12.29
					c0.08,0.75,0.15,1.49,0.23,2.24c0.1,0.75,0.18,1.49,0.28,2.24c0.11,0.73,0.21,1.46,0.32,2.19c0.11,0.73,0.24,1.46,0.37,2.17
					c2.87-5.08,7.55-8.42,13.89-9.97c0.02,0.13,0.02,0.28,0.03,0.41c0.06,0.89,0.16,1.79,0.24,2.68c0.03,0.28,0.06,0.55,0.1,0.83
					c-7.82,1.82-12,7.19-13.2,11.25c0.16,0.7,0.32,1.38,0.5,2.06c0.18,0.68,0.37,1.35,0.55,2.03c0.19,0.67,0.39,1.33,0.6,1.98
					c0.19,0.67,0.41,1.32,0.62,1.97c2.27-4.55,6.53-7.53,12.64-8.85c0.19,0.89,0.41,1.8,0.63,2.68c0.07,0.29,0.15,0.6,0.23,0.89
					c-7.56,1.54-11.09,6.3-11.8,9.9c0.24,0.62,0.5,1.22,0.75,1.82c0.26,0.6,0.54,1.18,0.8,1.77c0.28,0.58,0.55,1.17,0.83,1.73
					c0.28,0.57,0.55,1.14,0.84,1.69c1.75-3.91,5.63-6.43,11.56-7.52c0.39,1.09,0.83,2.14,1.27,3.18
					c-6.87,1.13-10.26,4.97-10.58,8.26c0.31,0.52,0.63,1.04,0.96,1.52c0.32,0.5,0.65,1.01,0.97,1.48c0.34,0.49,0.68,0.96,1.02,1.43
					c0.34,0.47,0.7,0.93,1.04,1.38c0.91-2.17,3.47-4.98,10.62-5.97c-0.05-0.08-0.08-0.15-0.11-0.23c0.31,0.55,0.62,1.09,0.94,1.61
					c0.31,0.5,0.62,0.99,0.92,1.48c-0.05-0.07-0.08-0.13-0.13-0.2c-6.65,0.83-9.62,3.91-9.58,6.45c0.37,0.41,0.75,0.81,1.12,1.19
					c0.39,0.39,0.76,0.76,1.15,1.13c0.39,0.37,0.78,0.73,1.17,1.07c0.39,0.36,0.8,0.7,1.18,1.02c0.55-1.3,2.56-3.6,9.87-4.27
					c0.62,0.73,1.27,1.41,1.9,2.08C89.85,159.06,87.23,161.22,87.5,163.02z"/>
				<path class="st3" d="M60.87,38.15c-0.5,0.31-1.01,0.63-1.49,0.97c-0.16,0.11-0.34,0.23-0.5,0.36c0.18-0.15,0.37-0.29,0.57-0.42
					C59.91,38.73,60.38,38.44,60.87,38.15z"/>
				<path class="st3" d="M60.22,52.84c-1.38-3.28-4.4-4.98-9.74-5.55c0.03-0.05,0.06-0.1,0.11-0.15c0.37-0.45,0.78-0.89,1.17-1.33
					c0.06-0.08,0.15-0.15,0.21-0.23c0.26-0.28,0.52-0.55,0.8-0.81c0.32-0.37,0.67-0.7,1.01-1.02c0.1-0.11,0.21-0.21,0.31-0.29
					c0.55-0.53,1.1-1.04,1.67-1.53c0.03-0.03,0.06-0.07,0.11-0.1c0.06,0.02,0.13,0.02,0.19,0.02c5.26,0.41,8.03,2.17,8.25,5.26
					c-0.37,0.44-0.71,0.89-1.07,1.35c-0.36,0.47-0.7,0.94-1.04,1.41c-0.34,0.49-0.68,0.97-1.01,1.46
					C60.87,51.82,60.52,52.32,60.22,52.84z"/>
				<path class="st3" d="M82.24,160.71c4.53,3.7,9.48,6.19,14.71,7.22l-3.1-0.2c-5.23-1.04-10.19-3.52-14.72-7.22
					c-4.58-3.73-8.72-8.72-12.19-14.67c-3.51-6.02-6.35-13.03-8.31-20.76c-1.96-7.78-3.05-16.23-3.05-25.08
					c0-9.38,1.22-18.33,3.41-26.46c2.19-8.1,5.34-15.37,9.24-21.49c3.83-6.05,8.37-10.97,13.39-14.45
					c4.64-3.23,9.67-5.21,14.92-5.76c0.1,0,0.19-0.02,0.28-0.02l2.34-0.16c0.44-0.02,0.89-0.05,1.3-0.08
					c-5.53,0.42-10.83,2.43-15.71,5.83c-5.02,3.49-9.54,8.42-13.39,14.49c-3.88,6.14-7.03,13.44-9.22,21.56
					c-2.19,8.16-3.41,17.12-3.41,26.54c0,8.88,1.09,17.35,3.05,25.14c1.96,7.76,4.79,14.79,8.29,20.83
					C73.53,151.97,77.67,156.97,82.24,160.71z"/>
				<path class="st1" d="M79.29,37.74c4.77-3.29,9.95-5.31,15.35-5.76c0.21-0.02,0.42-0.03,0.63-0.05l1.25-0.08
					c-5.24,0.55-10.27,2.53-14.92,5.76c-5.02,3.47-9.56,8.39-13.39,14.45c-3.9,6.12-7.04,13.39-9.24,21.49
					c-2.19,8.13-3.41,17.08-3.41,26.46c0,8.85,1.09,17.3,3.05,25.08c1.96,7.73,4.8,14.74,8.31,20.76
					c3.47,5.96,7.61,10.94,12.19,14.67c4.53,3.7,9.5,6.19,14.72,7.22l3.1,0.2l-0.02,0.24l-8.49-0.55l0.02-0.24l3.07,0.19
					c-5.23-1.04-10.19-3.51-14.72-7.19c-4.59-3.73-8.73-8.7-12.21-14.66c-3.52-6.01-6.35-13-8.31-20.71
					c-1.98-7.74-3.07-16.18-3.07-25.01c0-9.37,1.22-18.28,3.42-26.39c2.19-8.08,5.34-15.34,9.22-21.44
					C69.73,46.12,74.27,41.22,79.29,37.74z"/>
				<path class="st3" d="M57.99,56.64c-0.29,0.55-0.58,1.1-0.88,1.67c-0.29,0.55-0.57,1.14-0.84,1.7c-0.28,0.58-0.55,1.17-0.81,1.77
					c-0.26,0.58-0.52,1.18-0.76,1.8c-2.42-5.16-6.96-6.48-10.65-7.03c0.06-0.1,0.11-0.21,0.18-0.31c0.26-0.45,0.52-0.91,0.78-1.33
					c0.05-0.08,0.08-0.15,0.13-0.21c0.31-0.5,0.63-1.02,0.94-1.51c0.44-0.68,0.89-1.35,1.35-2c0.41-0.55,0.81-1.1,1.22-1.64h0.02
					c0.07,0,0.13,0.02,0.21,0.02C55.56,50.45,57.52,53.89,57.99,56.64z"/>
				<path class="st3" d="M57.04,159.14c-0.08-0.05-0.16-0.11-0.24-0.18c-0.32-0.28-0.65-0.54-0.97-0.83
					C56.22,158.49,56.61,158.81,57.04,159.14z"/>
				<path class="st3" d="M55.87,41.83c-0.05,0.03-0.08,0.07-0.11,0.1c0.03-0.05,0.06-0.07,0.1-0.1H55.87z"/>
				<path class="st3" d="M55.75,41.93c-0.57,0.49-1.12,0.99-1.67,1.53c0.13-0.15,0.24-0.26,0.37-0.37
					C54.88,42.7,55.31,42.31,55.75,41.93z"/>
				<path class="st3" d="M54.76,157.19c0.21,0.2,0.42,0.39,0.63,0.57h-0.02C55.17,157.58,54.96,157.39,54.76,157.19z"/>
				<path class="st3" d="M55.4,157.76c-0.21-0.18-0.42-0.37-0.63-0.57c-0.08-0.05-0.15-0.11-0.21-0.19
					c-0.18-0.16-0.36-0.33-0.52-0.5c0.08,0.02,0.18,0.03,0.24,0.03c2.09,0.36,8.47,1.43,20.24,5.81c0.42,0.28,0.84,0.55,1.27,0.81
					c0.44,0.26,0.86,0.5,1.3,0.75c0.44,0.23,0.88,0.45,1.31,0.68c0.44,0.21,0.88,0.42,1.31,0.62c-7.68-1.83-13.24-3.15-20-4.07
					c-0.5-0.32-0.99-0.68-1.48-1.04c-0.41-0.29-0.79-0.6-1.2-0.94c-0.42-0.33-0.81-0.65-1.22-1.01
					C55.67,158.02,55.54,157.91,55.4,157.76z"/>
				<path class="st3" d="M54.03,156.49c0.16,0.18,0.34,0.34,0.52,0.5c-0.18-0.15-0.36-0.33-0.53-0.5
					C54.02,156.49,54.02,156.49,54.03,156.49z"/>
				<path class="st3" d="M53.77,43.75c-0.34,0.32-0.68,0.65-1.01,1.02c0.1-0.13,0.21-0.24,0.32-0.36
					C53.32,44.19,53.55,43.96,53.77,43.75z"/>
				<path class="st3" d="M76.8,160.39c4.53,3.68,9.5,6.15,14.72,7.19l-3.07-0.19c-5.23-1.04-10.19-3.51-14.74-7.17
					c-4.59-3.73-8.73-8.69-12.22-14.61c-3.51-5.99-6.35-12.97-8.31-20.66c-1.98-7.73-3.07-16.13-3.07-24.93
					c0-9.33,1.22-18.23,3.43-26.31c2.19-8.05,5.36-15.29,9.24-21.38c3.85-6.02,8.41-10.92,13.42-14.38
					c4.95-3.41,10.32-5.42,15.92-5.81c0.03,0,0.05,0,0.08,0c0.7-0.05,1.56-0.11,2.32-0.15c0.05-0.02,0.08-0.02,0.11,0
					c-5.41,0.45-10.58,2.47-15.35,5.76c-5.02,3.47-9.56,8.38-13.42,14.43c-3.88,6.1-7.03,13.36-9.22,21.44
					c-2.21,8.12-3.42,17.03-3.42,26.39c0,8.83,1.09,17.27,3.07,25.01c1.96,7.71,4.79,14.71,8.31,20.71
					C68.07,151.69,72.21,156.65,76.8,160.39z"/>
				<path class="st3" d="M52.99,68.05c-0.23,0.63-0.44,1.28-0.65,1.93c-0.21,0.65-0.41,1.31-0.62,1.98
					c-0.19,0.67-0.37,1.33-0.57,2.01c-0.18,0.68-0.36,1.36-0.52,2.04c-3.26-6.05-8.23-7.65-11.7-8.31c0.26-0.71,0.53-1.43,0.81-2.14
					c0.29-0.73,0.58-1.44,0.89-2.16c0.08-0.18,0.16-0.37,0.24-0.55c0.37-0.84,0.76-1.69,1.17-2.5c0.16-0.34,0.32-0.68,0.5-1.01
					c0.08,0,0.15,0.02,0.21,0.03C50.01,60.68,52.28,65.37,52.99,68.05z"/>
				<path class="st3" d="M52.77,44.77c-0.28,0.26-0.54,0.54-0.8,0.81C52.23,45.29,52.51,45.02,52.77,44.77z"/>
				<path class="st3" d="M52.08,154.51c-0.02,0-0.02,0-0.03,0c-0.19-0.21-0.39-0.42-0.57-0.63
					C51.68,154.09,51.87,154.3,52.08,154.51z"/>
				<path class="st3" d="M50.59,47.14c-0.05,0.05-0.08,0.1-0.11,0.15h-0.02C50.51,47.24,50.54,47.19,50.59,47.14z"/>
				<path class="st3" d="M50.75,153.05c-0.44-0.49-0.86-1.01-1.28-1.53c-0.1-0.13-0.21-0.28-0.31-0.41
					C49.68,151.79,50.22,152.42,50.75,153.05z"/>
				<path class="st3" d="M47.43,51.2c-0.45,0.65-0.91,1.31-1.35,2c0.06-0.1,0.11-0.18,0.18-0.28C46.65,52.34,47.04,51.77,47.43,51.2
					z"/>
				<path class="st3" d="M71.55,160.18c-7.86-3.02-13.49-4.66-19.46-5.66c-0.21-0.21-0.41-0.42-0.6-0.63
					c-0.26-0.28-0.49-0.55-0.73-0.83c-0.54-0.63-1.07-1.27-1.59-1.93c-0.31-0.39-0.62-0.79-0.92-1.2c-0.37-0.5-0.71-0.99-1.07-1.51
					c-0.05-0.05-0.08-0.1-0.11-0.16c0.1,0.02,0.18,0.03,0.28,0.05c8.08,1.6,15.7,5.41,19.51,7.51c0.37,0.41,0.76,0.8,1.14,1.17
					c0.39,0.39,0.78,0.76,1.17,1.13c0.41,0.36,0.79,0.71,1.2,1.06C70.73,159.51,71.14,159.85,71.55,160.18z"/>
				<path class="st3" d="M47.05,148.25c0.03,0.07,0.06,0.11,0.11,0.16c-0.05-0.05-0.1-0.11-0.13-0.16H47.05z"/>
				<path class="st3" d="M44.65,55.5c0.11-0.19,0.23-0.39,0.36-0.58c-0.26,0.42-0.52,0.88-0.78,1.33C44.36,56,44.5,55.75,44.65,55.5
					z"/>
				<path class="st3" d="M42.56,59.35c-0.18,0.32-0.34,0.67-0.5,1.01c0.16-0.34,0.32-0.68,0.49-1.01H42.56z"/>
				<path class="st3" d="M42.22,140.02c0.03,0.07,0.06,0.11,0.1,0.18C42.28,140.13,42.25,140.08,42.22,140.02z"/>
				<path class="st3" d="M42.05,60.35c-0.41,0.81-0.8,1.66-1.17,2.5c0.23-0.5,0.45-1.01,0.68-1.51C41.73,61,41.89,60.68,42.05,60.35
					z"/>
				<path class="st3" d="M64.21,152.78c-8.85-4.72-14.71-6.27-18.81-7.08h-0.02c-0.37-0.6-0.75-1.2-1.1-1.83
					c-0.36-0.62-0.7-1.25-1.06-1.9c-0.31-0.57-0.6-1.19-0.91-1.77c-0.03-0.07-0.06-0.11-0.1-0.18c-0.32-0.67-0.65-1.35-0.96-2.03
					c0.08,0.02,0.19,0.03,0.28,0.07c8.21,1.85,15.18,6.41,18.59,8.97c0.32,0.52,0.65,1.02,0.97,1.51c0.34,0.5,0.67,0.99,1.01,1.46
					c0.34,0.49,0.7,0.96,1.04,1.41C63.5,151.88,63.84,152.34,64.21,152.78z"/>
				<path class="st3" d="M40.64,63.41c-0.31,0.71-0.6,1.43-0.89,2.16c-0.28,0.71-0.55,1.43-0.81,2.14h-0.02
					c0.28-0.73,0.55-1.46,0.83-2.18C40.04,64.82,40.33,64.1,40.64,63.41z"/>
				<path class="st3" d="M37.67,128.59c0.19,0.68,0.42,1.33,0.65,2c-0.03-0.08-0.06-0.18-0.1-0.26
					C38.03,129.76,37.85,129.18,37.67,128.59z"/>
				<path class="st3" d="M37.83,70.94c0.07,0,0.15,0.02,0.23,0.03c7.43,1.64,10.39,7.01,11.49,10.06c-0.13,0.71-0.26,1.43-0.39,2.16
					c-0.11,0.73-0.23,1.46-0.34,2.19c-0.1,0.73-0.19,1.48-0.28,2.21c-0.1,0.75-0.18,1.49-0.26,2.24c-4.12-6.75-9.35-8.6-12.92-9.41
					c0.11-0.53,0.23-1.09,0.34-1.62c0.11-0.49,0.21-0.96,0.32-1.43c0.05-0.21,0.1-0.42,0.16-0.63c0.21-0.91,0.45-1.8,0.7-2.68
					c0.28-0.97,0.55-1.95,0.86-2.91c0.02-0.07,0.05-0.15,0.06-0.21H37.83z"/>
				<path class="st3" d="M37.75,71.15c-0.31,0.96-0.58,1.93-0.86,2.91c0.07-0.28,0.15-0.55,0.23-0.83
					C37.33,72.53,37.53,71.83,37.75,71.15z"/>
				<path class="st3" d="M37.01,126.35c0.18,0.63,0.36,1.28,0.55,1.9c-0.08-0.24-0.15-0.5-0.23-0.75
					C37.22,127.13,37.12,126.74,37.01,126.35z"/>
				<path class="st3" d="M55.4,138.07c0.26,0.58,0.54,1.19,0.8,1.75c0.28,0.58,0.57,1.17,0.84,1.72c0.29,0.57,0.58,1.13,0.88,1.69
					c-8.08-5.65-14.12-7.42-17.95-8.26c-0.11-0.26-0.21-0.52-0.32-0.8c-0.18-0.45-0.36-0.91-0.52-1.36
					c-0.28-0.73-0.54-1.48-0.8-2.22c-0.23-0.67-0.45-1.32-0.65-2c-0.03-0.08-0.05-0.18-0.08-0.26c-0.02-0.03-0.02-0.05-0.03-0.08
					c-0.19-0.62-0.37-1.26-0.55-1.9c-0.03-0.11-0.06-0.23-0.1-0.34c0.08,0.02,0.18,0.05,0.26,0.06c8.47,2.1,15.03,7.82,17.45,10.2
					C54.88,136.87,55.14,137.47,55.4,138.07z"/>
				<path class="st3" d="M36.89,74.05c-0.24,0.88-0.49,1.77-0.7,2.68c0.08-0.39,0.18-0.76,0.28-1.15
					C36.6,75.06,36.75,74.56,36.89,74.05z"/>
				<path class="st3" d="M35.89,77.98c0.05-0.21,0.1-0.42,0.15-0.62c-0.11,0.47-0.21,0.94-0.32,1.43
					C35.77,78.52,35.82,78.26,35.89,77.98z"/>
				<path class="st3" d="M35.95,122.26c-0.07-0.21-0.11-0.42-0.16-0.63c-0.1-0.48-0.21-0.99-0.31-1.48
					C35.63,120.85,35.77,121.56,35.95,122.26z"/>
				<path class="st3" d="M35.41,80.11c0.1-0.44,0.19-0.88,0.29-1.31c-0.11,0.54-0.23,1.09-0.34,1.62
					C35.37,80.3,35.4,80.21,35.41,80.11z"/>
				<path class="st3" d="M35.03,117.83c0.13,0.78,0.29,1.56,0.45,2.32c-0.08-0.35-0.15-0.7-0.23-1.05
					C35.17,118.68,35.09,118.25,35.03,117.83z"/>
				<path class="st3" d="M47.9,104.55c-5.21-7.16-10.39-9.22-14.32-10.19c0.03-0.7,0.08-1.4,0.15-2.08
					c0.03-0.36,0.05-0.71,0.08-1.05c0.07-0.71,0.13-1.41,0.21-2.11c0.03-0.42,0.1-0.86,0.15-1.3c0.02-0.19,0.05-0.39,0.08-0.58
					c0.03-0.26,0.06-0.5,0.1-0.75c0.11-0.84,0.23-1.67,0.37-2.48c0.08,0.02,0.16,0.03,0.23,0.05c7.66,1.93,11.41,7.86,12.97,11.22
					c-0.02,0.39-0.03,0.78-0.05,1.17c-0.02,0.41-0.03,0.8-0.03,1.18c-0.02,0.41-0.02,0.8-0.02,1.19c-0.02,0.41-0.02,0.8-0.02,1.2
					c0,0.37,0,0.76,0.02,1.14c0,0.39,0,0.76,0.02,1.13c0,0.39,0.02,0.76,0.03,1.14C47.86,103.81,47.88,104.18,47.9,104.55z"/>
				<path class="st3" d="M34.96,117.52c-0.06-0.34-0.11-0.67-0.18-1c-0.08-0.44-0.15-0.88-0.21-1.32
					C34.7,115.96,34.83,116.76,34.96,117.52z"/>
				<path class="st3" d="M34.72,84c-0.15,0.81-0.26,1.64-0.37,2.48c-0.03,0.24-0.06,0.49-0.1,0.75c0.02-0.23,0.05-0.47,0.08-0.7
					c0.11-0.84,0.24-1.7,0.37-2.53H34.72z"/>
				<path class="st3" d="M34.39,113.89c-0.06-0.42-0.11-0.83-0.16-1.25c0.08,0.02,0.16,0.03,0.24,0.06
					c8.31,2.19,14.04,8.49,16.12,11.1c0.16,0.68,0.34,1.37,0.52,2.05c0.18,0.68,0.37,1.35,0.57,2.01c0.19,0.67,0.41,1.33,0.6,1.98
					c0.21,0.65,0.44,1.3,0.65,1.95c-7.21-6.35-13.1-8.31-16.9-9.21h-0.02c-0.03-0.11-0.05-0.21-0.06-0.32
					c-0.18-0.7-0.32-1.41-0.47-2.11c-0.16-0.76-0.32-1.54-0.45-2.32c-0.02-0.05-0.02-0.1-0.03-0.15c-0.02-0.05-0.02-0.11-0.03-0.16
					c-0.13-0.76-0.26-1.56-0.39-2.32v-0.02C34.51,114.76,34.44,114.32,34.39,113.89z"/>
				<path class="st3" d="M34.23,112.64c0.05,0.42,0.1,0.83,0.16,1.25c-0.06-0.42-0.13-0.83-0.18-1.25H34.23z"/>
				<path class="st3" d="M34.16,87.82c-0.05,0.44-0.11,0.88-0.15,1.3C34.05,88.68,34.1,88.24,34.16,87.82z"/>
				<path class="st1" d="M87.16,32.58c0.47-0.06,0.92-0.13,1.4-0.18c0.03-0.02,0.05-0.03,0.07-0.05c0.02,0,0.02,0,0.02,0l3.49-0.23
					c-5.6,0.39-10.97,2.4-15.92,5.81c-5.02,3.46-9.58,8.36-13.42,14.38c-3.88,6.09-7.04,13.33-9.24,21.38
					c-2.21,8.08-3.43,16.98-3.43,26.31c0,8.8,1.09,17.2,3.07,24.93c1.96,7.69,4.8,14.67,8.31,20.66
					c3.49,5.92,7.63,10.87,12.22,14.61c4.55,3.67,9.51,6.13,14.74,7.17l-0.02,0.24l-12.73-0.83c-1.23-0.08-2.45-0.23-3.65-0.48
					c1.75,0.11,4.04,0.28,5.78,0.39c-2.63-0.28-5.11-0.52-7.27-0.7c-0.03,0-0.05-0.02-0.08-0.02c-0.03,0-0.05-0.02-0.06-0.02
					c-0.76-0.19-1.51-0.41-2.26-0.67c5.02,0.49,9.98,1.15,14.98,1.74l3.02,0.2c-0.28-0.05-0.55-0.11-0.83-0.18
					c-0.26-0.06-0.54-0.13-0.81-0.19c-0.26-0.07-0.54-0.15-0.81-0.21c-0.26-0.08-0.54-0.16-0.8-0.24
					c-16.47-3.34-16.47-3.34-20.78-3.91c-0.08,0-0.19-0.02-0.28-0.03c-0.73-0.41-1.44-0.86-2.16-1.35c6.75,0.93,12.32,2.24,20,4.07
					c-0.44-0.19-0.88-0.41-1.31-0.62c-0.44-0.23-0.88-0.45-1.31-0.68c-0.44-0.24-0.86-0.49-1.3-0.75c-0.42-0.26-0.84-0.54-1.27-0.81
					c-11.77-4.38-18.15-5.45-20.24-5.81c-0.06,0-0.16-0.02-0.24-0.03c-0.02,0-0.02,0-0.02,0c-0.67-0.63-1.31-1.28-1.93-1.98
					c5.97,1.01,11.61,2.64,19.46,5.66c-0.41-0.32-0.81-0.67-1.2-1c-0.41-0.34-0.79-0.7-1.2-1.06c-0.39-0.37-0.78-0.75-1.17-1.13
					c-0.37-0.37-0.76-0.76-1.14-1.17c-3.81-2.11-11.43-5.91-19.51-7.51c-0.1-0.02-0.18-0.03-0.28-0.05
					c-0.37-0.54-0.73-1.07-1.09-1.62c-0.19-0.31-0.39-0.62-0.57-0.93c4.11,0.81,9.97,2.36,18.81,7.08
					c-0.37-0.44-0.71-0.89-1.07-1.36c-0.34-0.46-0.7-0.93-1.04-1.41c-0.34-0.47-0.67-0.96-1.01-1.46c-0.32-0.49-0.65-0.99-0.97-1.51
					c-3.41-2.56-10.37-7.12-18.59-8.97c-0.08-0.03-0.19-0.05-0.28-0.07c-0.57-1.23-1.1-2.51-1.62-3.81c0.11,0.28,0.21,0.54,0.32,0.8
					c3.83,0.84,9.87,2.61,17.95,8.26c-0.29-0.55-0.58-1.12-0.88-1.69c-0.28-0.55-0.57-1.14-0.84-1.72c-0.26-0.57-0.54-1.17-0.8-1.75
					c-0.26-0.6-0.52-1.2-0.78-1.8c-2.42-2.37-8.98-8.1-17.45-10.2c-0.08-0.02-0.18-0.05-0.26-0.06c-0.13-0.47-0.26-0.94-0.39-1.41
					c-0.18-0.67-0.34-1.33-0.49-2.01c3.8,0.89,9.69,2.86,16.9,9.21c-0.21-0.65-0.44-1.3-0.65-1.95c-0.19-0.65-0.41-1.32-0.6-1.98
					c-0.19-0.66-0.39-1.33-0.57-2.01c-0.18-0.68-0.36-1.36-0.52-2.05c-2.08-2.61-7.81-8.91-16.12-11.1
					c-0.08-0.03-0.16-0.05-0.24-0.06c-0.06-0.45-0.13-0.93-0.18-1.39c-0.1-0.86-0.18-1.71-0.26-2.56c-0.03-0.41-0.06-0.8-0.08-1.2
					c0.03,0.47,0.06,0.94,0.11,1.41c3.72,0.94,9.38,2.99,15.7,9.9c-0.15-0.71-0.26-1.44-0.39-2.16c-0.11-0.73-0.23-1.46-0.32-2.19
					c-0.11-0.73-0.19-1.48-0.29-2.21c-0.08-0.75-0.16-1.49-0.24-2.24c-1.7-2.79-6.53-9.51-14.58-11.7
					c-0.08-0.02-0.18-0.05-0.24-0.06c0-0.28,0-0.55,0.02-0.83c0.02-0.86,0.05-1.72,0.1-2.56c0-0.16,0.02-0.31,0.02-0.47
					c3.93,0.97,9.11,3.04,14.32,10.19c-0.02-0.37-0.03-0.75-0.03-1.13c-0.02-0.37-0.03-0.75-0.03-1.14
					c-0.02-0.37-0.02-0.75-0.02-1.13c-0.02-0.37-0.02-0.76-0.02-1.14c0-0.41,0-0.8,0.02-1.2c0-0.39,0-0.78,0.02-1.19
					c0-0.39,0.02-0.78,0.03-1.18c0.02-0.39,0.03-0.78,0.05-1.17c-1.56-3.36-5.31-9.28-12.97-11.22c-0.06-0.02-0.15-0.03-0.23-0.05
					c0.03-0.24,0.06-0.49,0.11-0.73c0.16-0.97,0.34-1.92,0.54-2.86c3.57,0.81,8.8,2.66,12.92,9.41c0.08-0.75,0.16-1.49,0.26-2.24
					c0.08-0.73,0.18-1.48,0.28-2.21c0.11-0.73,0.23-1.46,0.34-2.19c0.13-0.73,0.26-1.44,0.39-2.16c-1.1-3.05-4.06-8.42-11.49-10.06
					c-0.08-0.02-0.16-0.03-0.23-0.03c0.34-1.09,0.71-2.17,1.1-3.23c3.47,0.66,8.44,2.26,11.7,8.31c0.16-0.68,0.34-1.36,0.52-2.04
					c0.19-0.68,0.37-1.35,0.57-2.01c0.21-0.67,0.41-1.33,0.62-1.98c0.21-0.65,0.42-1.3,0.65-1.93c-0.71-2.68-2.99-7.37-10.23-8.67
					c-0.07-0.02-0.13-0.03-0.21-0.03c0.47-0.96,0.97-1.88,1.49-2.79c3.68,0.55,8.23,1.87,10.65,7.03c0.24-0.62,0.5-1.22,0.76-1.8
					c0.26-0.6,0.54-1.18,0.81-1.77c0.28-0.57,0.55-1.15,0.84-1.7c0.29-0.57,0.58-1.12,0.88-1.67c-0.47-2.74-2.43-6.18-9.12-7.06
					c-0.08,0-0.15-0.02-0.21-0.02c0.57-0.78,1.18-1.54,1.8-2.27h0.02c5.34,0.57,8.36,2.27,9.74,5.55c0.31-0.52,0.65-1.02,0.97-1.51
					c0.32-0.49,0.66-0.97,1.01-1.46c0.34-0.47,0.68-0.94,1.04-1.41c0.36-0.45,0.7-0.91,1.07-1.35c-0.21-3.08-2.99-4.85-8.25-5.26
					c-0.06,0-0.13,0-0.19-0.02c0.55-0.49,1.1-0.94,1.67-1.38c0.13-0.1,0.24-0.19,0.37-0.28c5.36,0.28,8.05,1.44,9.02,3.91
					c0.37-0.41,0.76-0.8,1.15-1.17c0.39-0.39,0.78-0.76,1.17-1.12c0.39-0.36,0.8-0.71,1.18-1.05c0.41-0.36,0.81-0.68,1.22-1.01
					c0.19-2.82-4.22-3.23-7.55-3.29c-0.07,0-0.15,0-0.21,0c0.5-0.24,1.01-0.49,1.51-0.7c0.24-0.11,0.49-0.21,0.75-0.32
					c5.44,0,7.81,0.6,8.47,2.17c0.42-0.28,0.84-0.55,1.27-0.81c0.44-0.24,0.86-0.5,1.3-0.73c0.44-0.24,0.86-0.45,1.31-0.68
					c0.42-0.21,0.88-0.41,1.31-0.6c0.37-1.28-2.18-1.41-7.03-1.2c-0.07,0-0.13,0-0.2,0c0.15-0.03,0.29-0.07,0.44-0.08
					c0.31-0.03,0.6-0.08,0.89-0.11c0.31-0.05,0.6-0.08,0.89-0.11c0.11,0,0.23-0.02,0.32-0.02c5.58-0.32,7.39-0.32,7.89,0.32
					c0.45-0.15,0.91-0.28,1.36-0.39c0.45-0.13,0.91-0.24,1.38-0.34C86.24,32.75,86.69,32.66,87.16,32.58z"/>
				<path class="st3" d="M33.81,91.23c-0.03,0.34-0.05,0.7-0.08,1.05c0-0.19,0.02-0.37,0.03-0.57
					C33.78,91.55,33.79,91.39,33.81,91.23z"/>
				<path class="st3" d="M33.71,107.48c-0.03-0.26-0.05-0.52-0.07-0.78c-0.02-0.19-0.02-0.37-0.03-0.57
					C33.65,106.58,33.68,107.04,33.71,107.48z"/>
				<path class="st3" d="M33.69,98.29c8.05,2.19,12.87,8.91,14.58,11.7c0.08,0.75,0.16,1.49,0.24,2.24c0.1,0.73,0.18,1.48,0.29,2.21
					c0.1,0.73,0.21,1.46,0.32,2.19c0.13,0.72,0.24,1.45,0.39,2.16c-6.31-6.91-11.98-8.96-15.7-9.9c-0.05-0.47-0.08-0.94-0.11-1.41
					c-0.03-0.44-0.07-0.89-0.1-1.35c-0.03-0.55-0.06-1.1-0.08-1.64c0-0.05,0-0.11,0-0.16c-0.03-0.62-0.06-1.23-0.06-1.85
					c-0.02-0.08-0.02-0.15-0.02-0.23c-0.02-0.75-0.02-1.49-0.02-2.24c0-0.15,0-0.31,0-0.46c0-0.42,0-0.84,0.02-1.27
					c0-0.02,0-0.05,0-0.06C33.52,98.24,33.61,98.27,33.69,98.29z"/>
				<path class="st3" d="M33.53,104.32c-0.03-0.28-0.03-0.57-0.05-0.86c0-0.32-0.02-0.65-0.02-0.99
					C33.47,103.09,33.5,103.71,33.53,104.32z"/>
				<path class="st3" d="M33.45,98.29c-0.02,0.42-0.02,0.84-0.02,1.27c0-0.15,0-0.29,0-0.44c0-0.15,0-0.31,0-0.45
					C33.43,98.53,33.45,98.42,33.45,98.29z"/>
			</g>
		</g>
		<path class="st0" d="M151.54,117.14c-1.37,5.41-3.36,10.34-5.84,14.53c-2.49,4.22-5.49,7.72-8.84,10.23
			c-3.38,2.53-7.14,4.06-11.12,4.32c-0.93,0.06-1.85,0.04-2.76-0.04c0.01,0,0.01,0,0.01,0c0.09-0.01,0.17-0.02,0.25-0.03
			c0.09-0.01,0.17-0.02,0.25-0.03c0.1-0.01,0.2-0.03,0.3-0.04c0.13-0.02,0.26-0.04,0.39-0.06c0.13-0.02,0.26-0.03,0.38-0.06
			c0.22-0.04,0.43-0.09,0.64-0.13c0.1-0.02,0.21-0.04,0.31-0.07c0.03-0.01,0.07-0.01,0.1-0.02c0.35-0.08,0.7-0.18,1.05-0.28
			c0.04-0.01,0.08-0.03,0.11-0.04c0.1-0.03,0.2-0.07,0.29-0.1c0.21-0.07,0.42-0.13,0.62-0.21c0.12-0.04,0.23-0.1,0.35-0.14
			c0.14-0.05,0.28-0.11,0.42-0.16c0.1-0.04,0.21-0.08,0.31-0.12c0.21-0.09,0.42-0.19,0.63-0.29c0.1-0.05,0.21-0.09,0.31-0.14
			c0.04-0.02,0.08-0.03,0.12-0.05c0.35-0.17,0.7-0.36,1.05-0.55c0.02-0.01,0.04-0.03,0.07-0.04c0.07-0.04,0.14-0.09,0.22-0.13
			c0.25-0.14,0.5-0.29,0.74-0.44c0.07-0.04,0.14-0.1,0.21-0.14c0.2-0.13,0.39-0.26,0.58-0.39c0.15-0.1,0.3-0.2,0.45-0.3
			c0.08-0.05,0.15-0.11,0.22-0.17c0.07-0.05,0.15-0.1,0.22-0.15c0.12-0.09,0.24-0.19,0.36-0.29c0.14-0.1,0.27-0.2,0.41-0.31
			c0.08-0.07,0.16-0.14,0.25-0.21c0.18-0.15,0.37-0.31,0.55-0.47c0.12-0.11,0.25-0.21,0.38-0.32c0.09-0.08,0.17-0.17,0.26-0.25
			c0.18-0.17,0.36-0.34,0.54-0.51c0.11-0.11,0.23-0.21,0.34-0.32c0.05-0.05,0.1-0.11,0.14-0.16c0.62-0.63,1.23-1.3,1.82-2.01
			c0.1-0.11,0.19-0.23,0.29-0.35c0.59-0.72,1.17-1.48,1.72-2.27c0.03-0.04,0.06-0.08,0.09-0.11c0.05-0.07,0.09-0.14,0.14-0.21
			c0.54-0.78,1.06-1.59,1.56-2.43c0.02-0.03,0.03-0.06,0.05-0.1c0.6-1.01,1.16-2.06,1.7-3.15c0,0,0-0.01,0.01-0.02
			c0.06-0.13,0.12-0.27,0.18-0.4c0.47-0.98,0.92-1.98,1.34-3.01c0.16-0.4,0.3-0.82,0.46-1.23c0.26-0.69,0.54-1.37,0.77-2.08
			c0.03-0.1,0.06-0.21,0.1-0.31c0.16-0.5,0.3-1.01,0.46-1.52c0.23-0.75,0.46-1.5,0.66-2.28c0.04-0.15,0.09-0.29,0.13-0.44
			c0.11-0.43,0.19-0.88,0.29-1.31c0.12-0.53,0.27-1.05,0.38-1.59c0.06-0.31,0.12-0.63,0.18-0.95c0.03-0.17,0.06-0.34,0.1-0.5
			c0.03-0.17,0.07-0.34,0.1-0.52c0.12-0.66,0.23-1.33,0.32-2.01c0.06-0.42,0.11-0.85,0.16-1.28c0.02-0.15,0.04-0.29,0.06-0.44
			c0.01-0.11,0.03-0.22,0.04-0.32c0.08-0.68,0.15-1.38,0.21-2.07c0.05-0.53,0.09-1.06,0.12-1.59c0.01-0.07,0.01-0.13,0.01-0.2
			c0-0.08,0.01-0.16,0.01-0.24c0.02-0.39,0.04-0.77,0.06-1.17c0.02-0.54,0.04-1.08,0.05-1.62c0.01-0.54,0.02-1.09,0.02-1.64
			c0-0.04,0-0.09,0-0.13c0-0.04,0-0.08,0-0.13c0-0.04,0-0.09,0-0.13s0-0.09,0-0.13c0-0.56-0.01-1.11-0.03-1.66
			c-0.02-0.55-0.04-1.1-0.07-1.65c-0.01-0.19-0.02-0.38-0.03-0.57c-0.01-0.13-0.02-0.25-0.02-0.38c-0.02-0.23-0.03-0.46-0.04-0.69
			c-0.04-0.54-0.08-1.08-0.13-1.62c-0.05-0.56-0.12-1.13-0.18-1.68c-0.01-0.07-0.02-0.13-0.03-0.2c-0.01-0.06-0.01-0.11-0.02-0.17
			c-0.05-0.43-0.11-0.87-0.17-1.3c-0.08-0.55-0.16-1.1-0.26-1.64c-0.06-0.37-0.13-0.73-0.2-1.09c-0.02-0.09-0.03-0.18-0.05-0.27
			c-0.02-0.09-0.03-0.17-0.05-0.26c-0.12-0.64-0.25-1.28-0.39-1.91c-0.14-0.62-0.28-1.23-0.44-1.83c0-0.01,0-0.02-0.01-0.03
			c0,0,0-0.01,0-0.01v0c-0.16-0.62-0.32-1.23-0.49-1.83c-0.17-0.6-0.36-1.2-0.54-1.79c-0.02-0.06-0.04-0.13-0.07-0.19
			c-0.06-0.18-0.13-0.36-0.19-0.54c-0.32-0.98-0.67-1.93-1.04-2.86c-0.11-0.29-0.23-0.58-0.35-0.87c-0.44-1.07-0.9-2.13-1.39-3.14
			c-0.01-0.01-0.01-0.03-0.02-0.04c-0.38-0.77-0.77-1.52-1.18-2.25c-0.12-0.22-0.25-0.42-0.38-0.64c-0.07-0.11-0.12-0.24-0.19-0.36
			c-0.17-0.28-0.34-0.55-0.51-0.83c-0.1-0.17-0.21-0.34-0.31-0.51c-0.4-0.62-0.8-1.22-1.22-1.8c-0.09-0.13-0.19-0.25-0.29-0.38
			c-0.34-0.46-0.68-0.91-1.03-1.34c-0.14-0.17-0.28-0.34-0.42-0.51c-0.37-0.45-0.75-0.88-1.14-1.3c-0.07-0.07-0.13-0.15-0.2-0.22
			c-0.02-0.02-0.03-0.03-0.05-0.05c-0.47-0.49-0.94-0.96-1.43-1.41c-0.14-0.13-0.28-0.25-0.41-0.37c-0.38-0.34-0.77-0.67-1.17-0.99
			c-0.14-0.11-0.28-0.23-0.42-0.33c-0.08-0.06-0.15-0.13-0.23-0.19c-0.44-0.33-0.89-0.64-1.34-0.94c-0.07-0.05-0.14-0.09-0.22-0.13
			c-0.47-0.3-0.94-0.58-1.43-0.84c-0.07-0.04-0.15-0.09-0.22-0.13c-0.09-0.05-0.17-0.08-0.26-0.12c-0.46-0.23-0.91-0.45-1.38-0.64
			c-0.12-0.05-0.23-0.11-0.36-0.16c-0.57-0.23-1.15-0.43-1.73-0.61c-0.14-0.04-0.28-0.08-0.42-0.11c-0.47-0.13-0.94-0.24-1.41-0.33
			c-0.17-0.03-0.34-0.07-0.51-0.1c-0.46-0.08-0.92-0.12-1.38-0.17c0.92-0.08,1.85-0.12,2.79-0.06c3.98,0.26,7.74,1.8,11.12,4.33
			c3.35,2.51,6.34,6.01,8.84,10.24c2.48,4.2,4.47,9.12,5.84,14.53c1.37,5.39,2.12,11.28,2.12,17.44
			C153.66,105.86,152.91,111.75,151.54,117.14z"/>
	</g>
</g>
</svg>
